<svg width="629" height="680" viewBox="0 0 629 680" fill="none" xmlns="http://www.w3.org/2000/svg">
<path d="M463.952 76.9303C498.968 97.6536 514.926 143.485 512.071 201.248C509.218 258.959 487.58 328.293 447.785 395.534C407.99 462.774 357.623 515.105 308.405 545.376C259.143 575.674 211.288 583.739 176.272 563.015C141.257 542.292 125.299 496.461 128.154 438.698C131.007 380.987 152.645 311.653 192.44 244.413C232.235 177.172 282.602 124.841 331.82 94.5698C381.082 64.2718 428.937 56.2072 463.952 76.9303Z" stroke="#C4142D" stroke-opacity="0.54" stroke-width="2"/>
<path d="M529.792 347.676C525.805 384.678 493.691 415.346 444.47 434.872C395.296 454.379 329.307 462.64 258.173 454.975C187.039 447.309 124.325 425.178 80.4366 395.643C36.5051 366.079 11.6626 329.273 15.6499 292.271C19.6373 255.269 51.751 224.6 100.973 205.074C150.146 185.567 216.135 177.305 287.269 184.971C358.404 192.636 421.117 214.767 465.006 244.303C508.937 273.867 533.78 310.674 529.792 347.676Z" stroke="#C4142D" stroke-opacity="0.44" stroke-width="2"/>
<path d="M524.807 124.966C552.889 154.41 555.817 202.852 537.402 257.675C519.003 312.449 479.37 373.315 422.828 427.241C366.287 481.167 303.614 517.875 248.031 533.661C192.398 549.462 144.149 544.244 116.067 514.8C87.9852 485.356 85.0565 436.915 103.472 382.092C121.871 327.318 161.504 266.452 218.045 212.526C274.587 158.6 337.26 121.892 392.843 106.105C448.476 90.3048 496.725 95.5226 524.807 124.966Z" stroke="#BF0808" stroke-opacity="0.82" stroke-width="2"/>
<path id='patternTail' d="M337.722 671.978C337.521 672.653 337.588 670.42 337.305 671.912C337.271 671.606 337.237 671.295 337.203 670.982C337.325 670.898 337.446 670.812 337.568 670.728C337.62 671.149 337.671 671.566 337.723 671.978C337.723 671.978 337.723 671.978 337.722 671.978ZM339.304 672.496C338.934 672.105 338.796 670.925 338.515 672.232C338.641 672.335 338.767 672.44 338.893 672.542C338.815 673.011 338.738 673.475 338.661 673.929C338.714 674.091 338.766 674.242 338.819 674.411C338.615 674.635 338.411 674.854 338.206 675.074C338.23 674.885 338.254 674.692 338.278 674.5C338.078 673.774 338.006 673.135 337.937 672.117C337.89 672.202 337.844 672.297 337.797 672.388C337.863 671.873 337.931 671.381 337.999 670.868C338.098 671.306 338.209 671.788 338.301 672.182C338.61 671.54 338.384 670.387 338.294 669.787C338.172 668.989 338.336 669.165 338.25 668.564C338.236 668.468 338.112 668.461 338.103 668.269C338.061 667.289 338.068 665.449 338.392 666.524C338.405 668.091 338.682 669.426 338.653 671.002C338.973 670.582 339.115 671.386 339.304 672.496ZM337.484 643.475C337.654 643.953 337.604 644.931 337.502 645.594C337.502 645.595 337.502 645.595 337.502 645.596C337.48 645.742 337.269 646.075 337.27 645.6C337.272 644.826 337.606 644.445 337.369 644.042C337.41 643.859 337.445 643.667 337.484 643.475ZM337.441 641.792C337.518 641.315 337.776 641.527 337.715 642.123C337.715 642.123 337.716 642.123 337.716 642.123C337.69 642.372 337.481 641.888 337.699 642.775C337.542 642.959 337.399 643.14 337.247 643.322C337.241 643.104 337.234 642.906 337.229 642.677C337.494 642.827 337.364 642.268 337.441 641.792ZM338.221 665.723C337.983 665.655 337.994 665.972 337.847 666.509C337.839 666.009 337.831 665.494 337.823 664.994C337.956 665.23 338.088 665.48 338.221 665.723ZM338.612 677.541C338.612 677.542 338.612 677.543 338.612 677.544C338.656 677.705 338.7 677.866 338.744 678.023C338.68 678.101 338.617 678.179 338.554 678.256L341.279 677.588C341.286 677.562 341.293 677.536 341.301 677.51C340.982 677.017 340.662 676.521 340.343 676.028C340.606 675.983 341.012 676.946 341.419 677.39C341.433 677.429 341.446 677.467 341.459 677.504L338.355 678.265C338.403 677.512 338.533 677.119 338.739 677.058C338.697 677.22 338.654 677.38 338.612 677.541ZM353.27 637.531C353.124 637.694 352.97 637.849 352.804 637.999C353.076 637.917 353.339 637.81 353.61 637.691C354.05 637.037 354.296 637.215 354.965 636.533C356.76 634.195 355.815 634.628 357.446 632.514C356.691 634.422 357.268 633.841 356.902 635.11C356.617 635.232 356.813 633.943 356.344 634.624C355.801 636.009 354.998 637.363 353.417 638.336C353.48 638.341 353.544 638.346 353.608 638.35C353.862 638.189 354.092 638.019 354.313 637.836C354.114 638.088 353.897 638.329 353.641 638.566C353.917 638.196 353.022 638.773 353.053 638.488C353.07 638.37 353.408 638.05 353.575 637.832C352.977 638.118 352.343 638.31 351.702 638.399C352.009 638.245 352.298 638.068 352.562 637.874C352.802 637.776 353.036 637.663 353.265 637.532C353.267 637.532 353.269 637.531 353.27 637.531ZM342.366 527.04C342.424 527.802 342.139 529.105 341.704 529.733C341.926 528.822 342.146 527.928 342.366 527.04ZM338.916 676.995C338.878 677.081 338.841 677.163 338.803 677.249C338.712 676.888 338.619 676.492 338.529 676.142C338.645 676.068 338.762 675.993 338.878 675.916C338.89 676.26 338.903 676.633 338.916 676.995ZM338.044 653.456C338.058 653.724 338.054 653.748 338.045 654.083C338.045 654.082 338.045 654.082 338.045 654.081C338.042 654.211 337.999 655.329 337.904 655.207C337.889 654.648 337.877 654.067 337.864 653.502C337.924 653.483 337.984 653.478 338.044 653.456ZM338.154 659.95C338.154 659.951 338.154 659.952 338.154 659.952C338.145 660.154 338.122 660.348 338.123 660.557C337.957 659.804 338.214 659.691 338.122 659.015C338.03 658.34 337.876 657.922 338.216 657.332C338.275 657.546 338.358 657.777 338.425 657.997C338.308 658.967 338.449 659.221 338.61 659.981C338.458 659.971 338.307 659.961 338.154 659.95ZM358.875 626.609C358.715 626.41 358.903 626.215 358.906 626.193C358.907 626.193 358.907 626.193 358.907 626.194C358.849 624.52 358.994 626.364 359.103 624.896C359.104 624.867 359.106 624.838 359.108 624.807C359.112 624.837 359.117 624.867 359.121 624.897C359.151 625.114 359.181 625.327 359.209 625.538C359.103 625.905 358.982 626.272 358.875 626.609ZM338.656 602.633C338.603 602.644 338.551 602.657 338.498 602.668C338.596 601.733 338.419 601.494 338.69 600.719C338.669 601.376 338.661 601.992 338.656 602.633C338.656 602.633 338.656 602.633 338.656 602.633ZM338.319 648.786C338.436 649.809 338.495 650.571 338.361 651.553C338.36 651.554 338.36 651.555 338.36 651.555C338.352 651.612 338.239 651.341 338.213 651.415C338.234 651.618 338.263 651.823 338.286 652.031C338.201 652.061 338.116 652.089 338.031 652.119C338.043 651.538 338.055 650.966 338.067 650.384C338.019 650.471 337.971 650.56 337.923 650.646C337.887 650.155 337.851 649.664 337.815 649.17C337.959 649.339 338.104 649.508 338.248 649.675C338.272 649.378 338.294 649.079 338.319 648.786ZM347.259 591.614C347.115 591.485 347.469 591.546 347.224 591.38C346.975 591.208 346.444 591.149 346.608 591.037C346.979 591.129 347.397 591.286 347.733 591.443C346.741 590.528 345.207 590.686 345.189 590.366C346.641 590.486 347.62 590.943 348.685 591.525C348.496 591.713 347.364 591.333 347.859 591.923C347.661 591.809 347.453 591.703 347.262 591.615C347.261 591.615 347.26 591.614 347.259 591.614ZM331.917 666.842C331.667 666.26 330.948 664.996 330.756 664.203C330.708 664.007 330.9 663.194 330.963 663.168C331.18 663.087 331.548 663.799 331.32 662.959C331.444 663.219 331.57 663.469 331.696 663.726C331.814 663.614 331.932 663.502 332.051 663.392C331.881 663.087 331.712 662.781 331.543 662.475C331.582 662.438 331.621 662.401 331.66 662.364C332.193 663.498 332.058 662.744 332.501 663.254C332.331 662.673 332.159 662.087 331.99 661.508C332.126 661.824 332.29 662.196 332.407 662.476C332.662 662.402 332.298 661.772 332.289 661.639C332.241 660.89 333.627 664.171 334.096 664.273C333.893 663.74 333.677 663.182 333.468 662.638C333.582 662.769 333.696 662.902 333.81 663.033C334.132 664.339 334.675 665.718 335.18 667.179C335.249 667.3 335.318 667.422 335.385 667.541C335.475 667.454 335.566 667.369 335.656 667.282C335.757 667.466 335.86 667.652 335.962 667.836C335.346 667.442 335.714 668.214 335.937 669.251C335.58 668.811 335.367 668.162 335.156 668.313C336.135 669.937 336.821 672.054 337.801 673.621C338.044 674.01 338.342 673.869 338.769 674.851C338.721 674.833 338.659 674.855 338.606 674.854C339.308 676.071 339.801 676.926 340.29 678.052L339.645 678.21C339.641 677.827 339.647 677.41 339.667 676.933C339.554 677.05 339.439 677.165 339.325 677.281C339.385 677.599 339.444 677.911 339.504 678.216L340.418 677.992C340.369 677.917 340.319 677.842 340.27 677.768C340.329 677.433 340.582 677.768 340.062 676.666C339.637 675.762 339.811 676.337 339.643 676.116C339.415 675.817 339.419 675.459 339.171 675.138C338.98 674.89 338.974 675.258 338.673 674.519C338.998 674.72 339.333 674.925 339.661 675.127C339.701 675.323 339.74 675.518 339.78 675.715C339.645 675.56 339.513 675.409 339.379 675.254C339.764 675.839 340.128 676.391 340.526 676.996C340.17 676.916 340.537 677.483 340.747 677.838L339.141 678.232C339.138 678.214 339.136 678.197 339.134 678.18C339.052 677.574 339.282 678.088 339.231 677.687C339.179 677.289 338.928 676.834 338.948 676.094C339.098 676.476 339.197 675.944 339.325 676.041C339.453 676.131 339.513 676.924 339.617 676.162C339.458 674.739 339.047 676.311 338.932 675.343C338.793 674.154 339.554 673.856 339.733 674.192C339.873 674.464 339.885 675.432 340.025 675.696C340.193 673.984 339.731 673.984 339.629 673.702C339.26 672.663 340.166 673.344 339.801 672.087C339.966 672.104 340.115 672.116 340.274 672.135C340.236 671.924 340.191 671.786 340.158 671.529C339.865 672.297 339.856 671.679 339.844 671.358C339.825 670.853 339.697 671.639 339.652 671.507C339.531 671.152 339.559 670.572 339.431 670.931C339.491 670.77 339.551 670.595 339.61 670.428C339.506 669.81 338.774 668.48 338.957 669.781C338.698 669.669 338.806 669.24 338.833 668.904C338.861 668.567 338.699 668.579 338.719 668.281C338.799 667.088 339.103 667.857 339.327 668.038C339.126 666.481 339.076 668.02 338.904 665.784C338.72 665.573 338.563 666.617 338.433 665.755C338.736 665.583 338.938 664.945 339.003 663.712C338.928 663.594 338.853 663.477 338.779 663.358C339.043 662.674 339.349 662.998 338.96 661.775C339.629 662.42 339.2 661.981 339.432 660.854C339.479 660.625 339.629 661.147 339.688 660.828C339.715 660.683 339.603 660.335 339.672 659.979C339.706 659.808 339.935 659.009 339.801 658.457C339.498 658.872 339.202 657.826 338.966 658.736C338.986 657.057 338.806 655.901 339.282 657.758C339.366 657.325 339.451 656.907 339.535 656.482C339.452 656.19 339.371 655.894 339.289 655.598C339.546 655.547 339.619 655.59 339.546 654.425C339.619 654.927 339.694 655.434 339.768 655.938C339.82 655.954 339.876 656.023 339.926 656.004C339.811 655.385 339.727 653.64 339.649 653.22C339.571 652.798 339.571 653.616 339.501 653.495C338.928 652.493 339.336 652.563 339.225 651.833C339.16 651.407 339.122 652.431 339.093 652.203C338.987 651.352 339.271 650.96 339.26 650.206C339.099 650.477 338.936 650.745 338.774 651.009C338.766 650.223 338.75 649.334 338.683 648.606C338.656 648.319 338.537 648.538 338.528 648.492C338.481 648.26 338.396 647.312 338.394 647.211C338.379 646.453 338.55 646.426 338.547 645.693C338.566 645.981 338.584 646.251 338.603 646.534C338.882 646.658 339.162 646.784 339.442 646.908C339.449 646.184 339.457 645.467 339.466 644.743C339.381 645.273 339.298 645.803 339.215 646.332C338.976 645.512 338.738 644.691 338.501 643.868C338.632 643.435 338.764 643.005 338.895 642.573C338.843 641.407 338.287 641.649 338.77 641.089C338.724 640.745 338.678 640.401 338.633 640.057C338.704 640.106 338.774 640.153 338.845 640.202C338.797 639.787 338.749 639.373 338.701 638.958C338.459 639.397 338.203 639.828 337.969 640.264C337.905 639.447 338.115 639.429 338.166 639.306C338.301 638.981 338.107 638.342 338.233 638.084C338.276 637.997 338.423 638.796 338.579 638.519C338.609 638.464 339.184 637.388 339.043 636.704C338.937 636.718 338.808 636.772 338.692 636.801C338.62 635.881 339.171 635.41 339.327 635.53C339.215 635.044 339.201 634.326 339.031 634.226C339.025 633.975 339.02 633.727 339.015 633.477C339.429 633.735 339.349 632.693 338.993 632.627C338.986 633.055 338.979 633.485 338.972 633.916C338.535 633.594 338.277 634.897 338.67 632.183C338.894 631.664 338.642 633.103 338.81 632.681C338.906 631.951 338.821 631.251 338.978 630.553C339.175 629.683 339.364 630.757 339.114 628.728C338.488 633.198 338.683 628.111 338.501 626.012C339.126 625.434 339.33 623.657 339.176 621.228C339 621.477 339.08 622.241 339.019 622.684C338.957 623.127 338.859 622.645 338.773 623.199C338.687 623.761 338.569 624.916 338.444 625.478C338.348 625.002 338.136 622.674 338.401 624.216C338.581 623.065 338.762 622.515 338.812 621.099C338.549 620.664 338.379 620.686 338.394 619.298C338.755 620.123 339.042 618.556 339.423 618.909C339.316 619.885 338.949 619.332 338.76 619.899C338.741 619.956 338.822 620.881 338.812 621.099C339.163 620.165 339.294 619.85 339.688 620.427C339.662 619.768 339.719 619.365 339.528 619.303C339.614 619.168 339.7 619.034 339.785 618.902C339.787 618.694 339.783 618.496 339.789 618.268C339.493 618.578 339.683 617.97 339.561 617.538C339.438 617.107 339.197 617.673 339.22 616.503C339.143 616.89 339.077 617.247 339.005 617.627C338.947 616.861 338.889 616.114 338.835 615.336C338.643 615.876 338.354 617.02 338.122 616.984C338.217 616.641 338.092 615.428 338.09 615.294C338.08 614.782 338.219 615.065 338.224 615.026C338.317 614.226 338.287 613.581 338.52 613.272C338.439 612.66 338.512 612.209 338.53 611.582C338.54 611.236 338.374 611.29 338.413 611.084C338.679 609.708 338.826 611.045 338.552 608.375C338.422 608.689 338.289 609.014 338.16 609.324C338.131 609.028 338.103 608.714 338.075 608.414C338.106 608.213 338.137 608.016 338.168 607.819C338.415 607.837 338.661 607.855 338.908 607.873C338.933 607.657 338.958 607.442 338.983 607.23C338.987 607.596 338.991 607.969 338.996 608.346C339.037 608.383 339.079 608.417 339.121 608.454C339.217 607.891 339.313 607.379 339.415 606.805C339.33 606.789 339.244 606.774 339.159 606.758C339.357 605.491 339.428 605.514 339.283 604.275C339.353 603.38 339.066 602.569 338.967 602.035C339.033 601.85 339.099 601.683 339.168 601.485C339.11 601.35 339.053 601.215 338.996 601.082C339.122 600.845 339.248 600.611 339.375 600.387C339.167 600.234 339.103 600.135 338.918 601.084C338.803 600.914 338.812 600.45 338.875 599.968C338.953 599.353 339.116 598.717 339.23 598.378C339.395 597.889 339.52 598.489 339.56 598.431C339.686 598.255 339.796 597.337 339.856 597.18C340.091 596.499 340.263 595.888 340.543 595.289C340.604 595.153 340.891 594.848 340.908 594.823C341.027 594.597 341.36 594.094 341.407 594.022C342.389 592.491 342.413 592.559 342.211 592.51C342.128 592.498 342.034 592.493 342.119 592.331C342.223 592.173 342.461 591.783 343.353 591.312C343.209 591.291 343.068 591.274 342.918 591.268C343.19 591.092 343.468 590.951 343.776 590.836C344.193 590.784 343.746 591.018 344.502 590.747C344.468 590.859 344.438 590.971 344.409 591.083C344.714 590.963 345.022 590.881 345.367 590.837C345.92 591.134 347.457 591.857 347.121 592.207C347.076 592.265 346.782 592.203 346.568 592.202C346.354 592.201 346.225 592.238 346.446 592.399C346.841 592.592 346.633 592.32 346.808 592.386C348.03 592.948 347.777 593.177 348.268 593.458C348.406 593.437 348.541 593.412 348.678 593.392C348.817 593.552 348.954 593.72 349.092 593.897C349.178 593.882 349.265 593.871 349.352 593.859C349.204 593.704 349.037 593.54 348.902 593.413C349.315 593.342 351.06 595.151 350.254 594.577C349.928 594.334 349.496 593.826 349.554 594.353C350.028 594.794 350.513 595.317 350.964 595.861C350.921 595.919 350.877 595.976 350.834 596.034C351.382 596.735 351.143 595.915 351.261 595.829C351.385 595.994 351.508 596.167 351.63 596.341C351.625 596.453 351.614 596.564 351.612 596.679C351.701 596.623 351.993 596.608 352.239 597.183C352.396 597.559 351.842 597.151 352.265 597.794C352.379 597.664 352.411 597.304 352.895 598.051C352.788 598.214 352.705 598.391 352.576 598.534C353.219 599.384 353.201 599.944 353.886 601.01C354.318 601.684 355.127 602.566 354.674 603.278C354.853 603.822 354.947 603.597 355.039 603.746C355.479 604.462 355.358 605.143 355.384 605.287C355.552 606.235 355.778 606.642 355.832 607.425C355.94 607.352 356.048 607.3 356.156 607.236C355.793 606.601 355.701 606.227 355.443 605.257C355.566 605.57 355.689 605.888 355.808 606.212C355.889 606.13 355.97 606.048 356.05 605.968C354.733 603.091 355.565 603.586 356.465 606.086C356.352 606.363 356.237 606.641 356.115 606.902C356.778 608.297 356.708 609.053 356.986 610.762C357.018 610.959 357.257 611.667 357.315 611.986C357.314 611.98 357.314 611.975 357.314 611.969C357.52 612.138 357.555 611.857 357.704 611.798C357.753 611.968 357.801 612.138 357.849 612.31C357.792 612.719 357.677 612.6 357.816 613.346C357.919 613.228 358.022 613.11 358.124 612.991C358.251 613.817 358.194 614.392 358.338 615.167C358.279 615.043 358.219 614.919 358.159 614.791C358.232 616.491 357.393 615.217 357.865 616.456C357.811 616.543 357.757 616.628 357.703 616.714C357.642 616.189 357.575 615.669 357.502 615.159C357.415 615.158 357.329 615.157 357.242 615.158C357.33 615.703 357.412 616.257 357.486 616.817C357.393 616.412 357.296 616.009 357.196 615.613C357.223 616.255 357.24 616.91 357.247 617.561C357.511 616.85 357.618 617.738 357.919 617.547C357.737 618.705 357.449 619.635 357.697 621.399C357.743 621.751 357.967 621.566 357.697 622.568C358.05 622.326 358.199 623.584 358.532 623.43C358.523 623.077 358.517 622.713 358.498 622.375C358.381 622.76 358.064 622.82 357.971 622.237C357.855 621.476 358.047 620.384 357.695 620.438C357.704 620.141 357.704 619.874 357.706 619.576C357.798 619.693 357.891 619.81 357.982 619.921C357.815 619.094 357.828 618.573 358.024 618.164C358.136 619.144 358.226 620.137 358.292 621.12C358.305 620.974 358.317 620.826 358.328 620.68C358.566 621.427 358.773 620.64 358.832 622.06C358.729 622.051 358.626 622.045 358.522 622.036C358.803 622.55 358.775 623.945 359.1 623.506C358.994 623.93 358.929 624.015 359.092 624.263C359.037 624.49 358.978 624.7 358.916 624.888C358.671 625.668 358.388 626.034 358.12 625.698C358.153 626.121 358.18 626.535 358.201 626.936C358.321 626.715 358.439 626.488 358.556 626.256C358.497 626.966 358.418 627.689 358.31 628.429C358.015 628.47 358.394 626.983 358.083 627.391C358.021 627.475 358.087 627.889 358.044 627.988C357.584 629.028 358.035 627.358 357.747 627.646C357.452 629.25 357.271 627.878 357.209 630.097C357.114 630.137 357.016 630.179 356.923 630.213C356.749 630.944 356.959 630.892 356.814 631.543C356.716 631.961 356.24 632.325 356.303 632.794C356.309 632.837 356.472 632.729 356.564 632.783C356.654 632.831 356.69 633.076 356.335 633.821C355.773 634.902 355.734 634.328 355.308 634.834C354.935 635.306 354.143 636.721 353.483 636.578C353.784 636.437 354.137 636.172 354.422 635.942C354.462 635.77 354.494 635.602 354.522 635.43C354.071 636.16 353.313 636.57 352.923 637.014C351.825 637.28 350.668 637.641 351.038 637.975C351.415 637.864 350.97 637.781 351.517 637.78C351.589 637.852 351.665 637.922 351.742 637.991C350.809 638.203 350.15 638.162 350.565 637.896C350.423 637.899 350.279 637.896 350.138 637.889C350.112 638.078 350.088 638.267 350.058 638.455C349.879 638.473 349.697 638.486 349.513 638.492C349.314 638.434 349.114 638.368 348.92 638.296C349.249 638.028 349.63 638.13 348.259 637.684C348.231 637.783 348.201 637.881 348.173 637.98C347.001 637.526 347.052 637.29 345.678 636.665C346.861 636.846 347.255 637.612 347.479 636.937C347.73 637.07 347.978 637.194 348.25 637.31C348.318 637.219 348.383 637.128 348.445 637.035C347.027 636.83 344.37 636.169 343.766 635.177C343.631 635.153 343.499 635.122 343.358 635.097C342.682 634.285 341.952 634.493 341.379 633.549C341.325 633.447 341.858 633.173 340.854 632.286C340.827 632.363 340.753 632.467 340.709 632.555C340.529 632.327 340.354 632.094 340.18 631.858C340.094 631.871 340.007 631.882 339.92 631.895C340.26 632.267 340.59 632.617 340.953 632.978C340.622 632.713 340.308 632.452 339.992 632.179C340.303 632.637 340.483 632.801 340.12 632.711C339.77 632.396 339.419 632.066 339.077 631.73C339.01 631.728 338.943 631.726 338.875 631.723C338.933 631.982 339.006 632.25 339.073 632.516C338.261 631.546 337.535 630.721 337.132 629.814C337.063 629.658 337.568 629.992 336.737 629.233C336.8 629.159 336.842 629.087 336.899 629.017C335.856 628.132 335.641 627.71 335.005 626.445C335.372 627.299 335.007 626.563 334.797 626.423C334.652 626.328 335.011 626.839 334.914 626.82C334.817 626.803 334.126 626.28 334.491 626.88C335.939 627.951 335.647 628.74 337.281 630.262C337.006 630.054 336.729 629.838 336.456 629.619C336.519 629.776 336.575 629.916 336.646 630.084C335.944 629.05 336.275 629.567 335.888 629.224C335.504 628.882 334.883 628.177 334.507 627.684C334.389 627.528 334.612 627.624 334.37 627.254C334.204 627.004 333.589 626.421 333.677 626.139C333.736 625.958 334.774 626.834 333.806 625.318C333.749 624.956 334.168 625.709 334.194 625.714C334.419 625.752 333.941 624.76 333.575 624.388C333.544 624.358 333.635 624.772 333.367 624.422C332.733 623.587 332.584 622.978 332.462 622.289C332.215 622.336 331.55 621.685 331.186 620.641C331.1 620.618 331.015 620.597 330.928 620.573C331.03 620.715 331.133 620.857 331.237 620.997C331.274 621.184 331.329 621.377 331.361 621.564C330.837 620.583 330.479 620.568 330.157 620.119C329.081 618.544 330.322 619.279 330.581 619.523C330.611 619.766 330.636 620.005 330.667 620.245C330.735 620.188 330.803 620.131 330.872 620.076C329.865 617.557 331.214 619.491 330.884 618.17C330.379 617.989 329.995 617.038 329.93 615.74C329.892 615.604 329.857 615.468 329.822 615.333C329.757 615.324 329.668 615.346 329.62 615.318C329.203 613.832 329.828 613.445 329.858 613.303C329.896 613.155 329.905 613.021 329.895 612.898C329.867 612.512 329.614 612.204 329.598 612.056C329.517 611.202 329.68 611.069 329.586 610.285C329.494 609.44 329.378 610.013 329.261 609.766C329.168 609.582 329.152 608.954 329.063 608.678C329.138 608.787 329.212 608.906 329.288 609.011C329.399 608.151 329.52 607.477 329.589 606.518C329.086 605.34 330.089 604.56 329.302 604.862C329.193 605.735 329.079 606.284 328.863 606.762C328.864 606.157 328.875 605.523 328.888 604.948C328.983 604.781 329.072 604.663 329.172 604.462C329.024 604 329.185 602.94 329.167 602.55C329.095 600.631 328.742 601.143 329.426 599.49C329.346 600.732 329.592 600.759 329.441 602.013C329.641 601.761 329.666 601.115 329.838 601.55C329.904 600.313 329.677 600.705 329.556 600.224C329.452 599.817 329.532 599.001 329.34 599.025C329.452 598.953 329.559 598.899 329.671 598.826C329.76 598.02 329.847 597.276 329.942 596.496C330.008 596.84 330.076 597.181 330.145 597.519C330.214 597.278 330.284 597.035 330.355 596.791C330.253 594.797 331.318 591.641 330.412 592.029C330.513 591.118 330.635 591.02 330.865 590.545C330.81 590.481 330.765 590.42 330.702 590.354C330.855 589.771 330.686 589.276 330.828 588.752C330.967 588.247 331.212 588.153 330.845 588.02C331.005 587.701 331.147 587.38 331.3 587.06C331.246 586.844 331.193 586.627 331.139 586.411C331.235 586.099 331.331 585.785 331.427 585.47C331.273 585.273 331.55 584.054 331.521 583.482C331.801 582.992 332.409 583.104 332.507 581.857C332.35 581.862 332.194 581.868 332.037 581.873C332.115 581.602 332.194 581.329 332.273 581.053C332.326 581.045 332.378 581.039 332.43 581.03C332.39 581.17 332.351 581.308 332.311 581.447C332.416 581.338 332.52 581.232 332.624 581.124C332.573 580.678 332.522 580.229 332.473 579.776C332.278 580.342 332.085 580.904 331.894 581.463C331.905 580.722 332.103 580.235 332.089 579.579C332.394 579.062 332.479 579.287 332.667 579.551C332.683 579.342 332.701 579.131 332.718 578.921C332.921 579.096 333.116 578.775 332.889 579.97C332.968 579.899 333.044 579.826 333.126 579.757C333.15 579.559 333.226 579.441 333.239 579.22C333.274 578.615 332.954 578.102 332.808 578.117C332.731 578.125 332.77 578.724 332.67 578.685C332.429 578.58 332.774 577.273 332.185 579.15C332.136 578.482 332.282 578.36 332.451 577.675C332.357 577.714 332.264 577.752 332.171 577.79C332.267 577.474 332.363 577.158 332.46 576.841C332.81 577.368 333.401 575.008 333.393 577.226C333.525 576.596 333.659 575.964 333.795 575.33C333.816 575.47 333.836 575.609 333.856 575.748C333.781 576.031 333.706 576.312 333.632 576.595C333.773 576.272 333.915 575.949 334.057 575.625C334.103 574.802 334.004 574.474 333.881 574.075C333.573 574.971 333.819 574.698 333.724 575.433C333.608 575.386 333.491 575.399 333.376 575.312C333.695 574.974 333.733 573.744 333.774 573.457C333.896 572.594 334.016 573.311 334.128 572.738C334.24 572.166 334.223 571.453 334.554 571.034C334.417 571.017 334.269 571.027 334.138 571.037C334.262 570.14 334.389 570.348 334.428 570.26C335.05 568.858 334.919 567.986 335.213 566.304C335.129 566.51 335.048 566.718 334.966 566.926C334.927 565.601 334.846 566.472 334.536 567.555C334.766 566.528 334.637 565.889 334.709 565.143C334.781 564.397 335.158 563.167 335.349 562.732C335.297 563.805 334.965 564.923 334.781 566.092C334.945 565.987 335.088 565.882 335.267 565.775C335.116 565.011 335.392 564.639 335.477 564.413C335.727 563.751 335.474 563.722 335.825 563.364C335.729 563.362 335.649 563.359 335.559 563.358C335.881 561.958 336.356 560.467 336.205 559.48C336.443 559.442 336.67 559.423 336.916 559.373C336.872 558.743 337.149 558.267 337.215 557.757C337.281 557.249 337.062 557.402 337.117 556.799C337.127 556.688 337.286 556.485 337.26 556.2C337.234 555.912 336.829 554.782 337.394 554.778C337.503 554.274 337.625 553.802 337.74 553.311C337.667 553.797 337.594 554.285 337.522 554.77C337.74 554.388 337.957 554.009 338.175 553.628C338.07 553.55 337.963 553.473 337.859 553.398C337.954 552.267 338.319 551.501 338.517 550.379C338.55 550.192 338.224 550.58 338.464 549.769C338.703 548.959 339.267 548.44 339.415 546.997C339.422 546.924 339.187 546.434 339.527 545.984C339.604 545.881 339.572 546.379 339.699 546.132C339.825 545.885 340.144 544.731 340.327 544.672C340.267 544.671 340.191 544.731 340.125 544.754C340.144 544.547 340.162 544.337 340.182 544.128C340.286 544.132 340.392 544.135 340.496 544.139C340.525 542.929 340.276 542.263 340.799 540.579C340.542 541.028 340.284 541.475 340.03 541.915C340.102 542.069 340.175 542.224 340.248 542.376C340.027 543.15 339.806 543.93 339.587 544.712C339.674 544.868 339.761 545.023 339.849 545.177C339.787 545.381 339.726 545.583 339.664 545.788C339.591 545.717 339.519 545.646 339.447 545.572C339.375 545.989 339.304 546.406 339.232 546.822C338.921 545.873 339.799 544.502 339.359 544.512C339.466 544.34 339.573 544.168 339.681 543.997C339.498 543.87 339.642 543.503 339.826 542.846C339.691 542.976 339.555 543.121 339.423 543.238C339.711 542.62 339.958 541.484 340.168 540.821C340.261 540.531 340.338 540.86 340.376 540.776C340.57 540.346 340.515 539.429 340.577 539.255C340.947 538.214 341.592 537.641 341.554 536.388C341.187 537.58 341.377 536.93 341.098 537.32C341.009 537.448 340.527 538.972 341.04 537.031C341.102 536.79 342.279 533.358 342.257 534.574C342.311 533.992 342.329 533.505 342.37 532.96C343.355 531.843 342.615 532.133 342.176 532.419C342.226 532.209 342.271 532.009 342.324 531.794C342.577 532.341 343.172 530.017 343.19 529.169C343.195 528.888 342.892 529.603 342.991 528.974C343.089 528.687 343.205 528.365 343.311 528.067C342.968 528.453 343.099 527.559 342.861 527.513C343.21 527.013 343.767 526.676 343.927 527.054C343.949 526.558 343.972 526.064 343.993 525.576C343.882 525.776 343.771 525.981 343.66 526.184C344.192 524.71 344.37 522.663 344.946 522.478C344.995 522.277 345.045 522.075 345.094 521.876C345.027 521.793 344.96 521.712 344.893 521.629C345.199 520.764 345.528 519.829 345.841 518.964C345.675 519.777 345.741 520.001 345.415 520.836C345.599 520.529 345.786 520.218 345.968 519.924C346.054 518.588 345.93 518.369 346.543 516.468C346.569 516.384 347.189 515.014 347.228 514.958C347.39 514.756 347.428 515.144 347.506 515.056C347.725 514.798 348.549 513.23 348.589 513.286C349.096 513.828 347.487 519.569 347.12 521.122C343.202 537.261 339.199 553.082 336.125 569.334C336.094 569.502 336.203 569.447 336.193 569.519C336.132 569.966 335.901 570.37 335.864 570.532C335.785 570.878 335.958 570.712 335.91 570.966C335.408 573.606 334.868 576.092 334.43 578.721C334.401 578.893 334.323 578.698 334.288 579.006C334.271 579.166 334.353 579.688 334.295 580.042C334.089 581.281 333.864 582.281 333.648 583.599C333.531 584.318 333.348 585.354 333.222 586.163C333.166 586.519 333.186 586.899 333.134 587.247C333.061 587.74 332.92 587.614 332.899 587.689C332.805 588.013 332.97 588.085 332.918 588.397C332.821 588.975 332.702 588.987 332.599 589.745C332.525 590.287 332.438 591.517 332.373 592.175C332.013 593.763 331.81 595.718 331.677 597.202C331.601 598.064 331.433 598.109 331.391 598.479C331.249 599.769 331.365 600.654 331.257 601.875C331.125 603.406 330.88 604.793 330.794 606.28C330.78 606.528 330.932 606.478 330.924 606.718C330.898 607.576 330.897 608.733 330.881 609.471C330.863 610.303 330.657 610.688 330.747 611.45C330.778 611.705 330.97 611.771 331.032 612.156C331.064 612.355 331.078 612.551 331.084 612.733C331.103 613.155 331.096 613.575 331.141 613.873C331.239 614.478 331.316 613.924 331.469 614.723C331.475 614.755 331.369 614.907 331.418 615.078C331.564 615.573 331.654 615.505 331.855 616.227C331.869 616.295 332.054 617.297 332.092 617.395C332.276 617.952 332.679 619.093 332.847 619.402C333.446 620.519 333.225 619.519 333.27 620.691C333.574 621.073 333.883 621.444 334.212 621.839C333.964 621.589 334.482 622.861 334.543 622.938C335.005 623.591 334.914 623.095 335.407 623.97C334.37 623.043 336.037 625.111 336.394 625.574C338.029 627.868 339.611 629.908 341.675 631.8C342.372 632.439 343.387 633.159 344.175 633.709C344.361 633.839 344.165 633.82 344.329 633.935C344.492 634.048 344.371 633.836 344.554 633.966C345.682 634.76 346.577 635.46 347.788 635.623C347.83 635.677 347.819 635.704 347.896 635.772C348.883 635.918 350.512 636.348 351.106 636.209C352.031 636.055 352.165 635.77 352.718 635.431C353.47 634.989 354.549 633.813 353.765 634.102C354.139 633.534 354.43 632.957 354.762 632.246C354.795 632.175 354.893 632.271 354.907 632.242C354.997 632.058 354.914 631.955 354.956 631.82C355.07 631.446 354.991 632.097 355.135 631.55C355.204 631.263 355.185 631.033 355.374 630.254C355.784 628.507 355.978 626.757 356.067 624.772C356.231 621.021 356.064 617.168 355.54 613.532C355.485 613.156 355.404 613.427 355.338 612.949C355.125 611.294 354.68 608.326 354.248 606.973C353.817 605.586 353.739 605.97 353.395 605.143C353.326 604.982 353.468 605.086 353.419 604.936C353.099 603.942 352.794 602.713 352.489 601.946C352.277 601.416 352.149 601.525 351.98 601.18C351.732 600.678 351.608 600.07 351.472 599.797C350.833 598.529 350.205 597.745 349.506 596.677C349.509 596.739 349.503 596.786 349.501 596.841C348.62 595.623 347.568 594.5 346.505 593.896C346.539 593.951 346.571 594.007 346.604 594.066C346.012 593.704 345.794 593.585 345.702 593.556C345.605 593.534 345.645 593.643 345.59 594.009C345.516 594.015 345.446 594.032 345.392 594.047C345.486 593.706 344.999 593.198 344.231 593.6C344.168 593.622 344.092 594.19 343.817 593.858C343.805 594.024 343.812 594.127 343.814 594.271C343.574 594.355 343.324 594.487 343.082 594.634C343.028 594.763 342.972 594.9 342.92 595.044C342.986 595.103 343.072 595.129 343.125 595.209C342.84 595.733 342.267 597.14 342.161 597.692C341.963 598.573 341.91 599.448 341.808 600.338C341.751 600.85 341.669 601.361 341.524 601.832C341.493 602.399 341.715 601.846 341.612 602.702C341.518 602.793 341.428 602.879 341.332 602.975C341.644 603.756 341.405 603.83 341.251 604.824C341.147 605.518 341.214 605.909 341.156 606.556C341.141 606.718 341.031 606.688 341.028 606.8C341.015 607.195 341.113 608.215 341.104 608.486C341.025 610.844 340.936 612.896 340.834 615.137C340.823 615.381 340.941 615.068 340.93 615.32C340.912 615.726 340.75 615.482 340.735 615.718C340.697 616.384 340.875 616.379 340.864 617.288C340.83 620.289 340.659 623.742 340.636 626.885C340.636 626.983 340.74 626.977 340.741 627.084C340.744 627.775 340.602 628.48 340.603 629.115C340.605 630.161 340.753 630.945 340.755 631.986C340.761 634.002 340.699 635.814 340.715 637.897C340.728 639.599 340.759 641.081 340.786 642.948C340.902 651.103 341.439 659.444 341.533 667.646C341.535 667.858 341.44 667.775 341.447 667.84C341.507 668.452 341.633 668.499 341.38 668.724C341.457 669.494 341.661 669.715 341.68 670.664C341.69 671.162 341.374 670.806 341.56 671.633C341.729 672.368 341.864 671.554 341.779 673.806C341.776 673.868 341.602 674.151 341.669 674.636C341.735 675.11 341.846 674.563 341.93 675.69C341.985 676.414 342.027 677.298 342.058 678.108L338.104 679.078C337.204 677.136 336.267 674.971 335.293 672.978C335.207 672.803 334.322 671.148 334.124 670.833C333.74 670.222 333.679 670.416 333.254 669.588C332.925 668.949 332.814 668.346 332.427 667.595C332.382 667.507 332.167 667.426 331.917 666.842ZM350.137 638.619C349.968 638.765 349.537 639.388 348.375 638.997C348.274 638.96 348.92 638.681 348.317 638.498C348.912 638.582 349.539 638.644 350.137 638.618C350.137 638.618 350.137 638.619 350.137 638.619ZM333.299 661.118C333.61 661.848 333.922 662.581 334.233 663.311C333.937 662.846 333.641 662.379 333.346 661.915C333.33 661.649 333.315 661.384 333.299 661.118ZM339.466 597.606C339.466 597.607 339.466 597.608 339.466 597.609C339.575 596.759 339.748 595.853 339.994 595.007C340.008 595.124 340.028 595.229 340.049 595.331C339.903 595.988 339.783 596.733 339.722 597.382C339.637 597.455 339.551 597.53 339.466 597.606ZM339.223 604.317C339.118 604.85 339.018 604.711 338.89 605.005C338.89 605.005 338.89 605.005 338.89 605.005C338.856 605.09 338.808 605.434 338.795 605.572C338.867 605.526 338.939 605.466 339.011 605.416C339.093 606.646 338.362 609.092 338.314 605.892C338.397 605.945 338.481 605.996 338.564 606.048C338.637 604.496 338.975 602.749 339.223 604.317ZM338.741 632.724C337.581 631.949 337.215 631.65 336.298 630.257C336.51 630.387 336.723 630.514 336.935 630.637C337.051 630.898 337.164 631.151 337.29 631.415C337.291 631.415 337.291 631.416 337.292 631.417C337.393 631.4 337.494 631.383 337.594 631.364C337.968 631.83 338.339 632.272 338.741 632.724ZM338.688 655.438C338.129 655.824 338.456 655.711 338.302 654.644C338.249 654.279 338.158 654.638 338.136 654.411C338.017 653.183 338.396 653.072 338.6 653.344C338.63 654.043 338.658 654.743 338.688 655.435C338.688 655.436 338.688 655.437 338.688 655.438ZM336.441 669.621C336.44 669.62 336.44 669.62 336.44 669.619C336.552 669.531 336.797 669.966 336.677 669.402C336.858 669.789 337.039 670.176 337.221 670.565C337.156 670.457 337.09 670.345 337.025 670.237C337.029 670.358 337.033 670.479 337.037 670.6C337.245 670.67 337.221 670.837 337.364 671.266C337.465 671.081 337.567 670.897 337.669 670.713C337.844 671.207 338.02 671.702 338.196 672.196C338.16 672.22 338.124 672.244 338.088 672.268C338.221 672.423 338.354 672.576 338.487 672.73C338.463 672.8 338.439 672.869 338.416 672.939C338.551 673.137 338.687 673.336 338.824 673.534C338.742 673.652 338.472 673.201 338.894 674.027C338.658 673.824 338.422 673.621 338.185 673.415C337.604 672.151 337.022 670.886 336.441 669.621ZM338.313 645.771C338.363 647.304 338.266 646.875 337.979 646.523C338.09 646.272 338.202 646.02 338.313 645.771ZM357.17 609.508C357.451 609.903 357.732 610.33 357.998 610.74C358.274 611.618 358.073 612.6 357.825 611.933C357.525 611.141 357.545 610.264 357.17 609.508ZM357.875 630.281C358.194 629.146 358.204 630.281 358.274 630.566C357.99 630.847 357.929 631.221 357.69 631.939C357.884 631.253 357.818 630.48 357.874 630.281C357.875 630.281 357.875 630.281 357.875 630.281ZM349.722 593.138C349.374 592.812 348.996 592.559 348.683 592.244C348.9 592.166 349.481 592.867 349.163 592.251C349.423 592.455 349.635 592.638 349.867 592.85C349.648 592.798 349.781 593.039 349.722 593.137C349.722 593.137 349.722 593.138 349.722 593.138ZM337.95 630.902C338.166 630.026 338.073 629.868 337.922 628.985C338.099 628.863 338.395 629.908 338.462 630.564C338.291 630.676 338.12 630.788 337.95 630.902ZM340.143 538.49C340.315 538.744 339.991 540.257 339.752 540.999C339.74 540.901 339.728 540.803 339.715 540.706C339.858 539.964 340 539.224 340.143 538.49ZM357.572 632.269C357.615 632.155 357.655 632.045 357.69 631.939C357.657 632.058 357.618 632.17 357.572 632.269ZM329.228 610.801C329.456 611.146 329.479 610.102 329.456 611.364C329.456 611.364 329.456 611.364 329.457 611.364C329.457 612.144 329.469 612.403 329.525 612.95C329.534 613.024 329.543 613.104 329.555 613.191C329.5 613.149 329.445 613.065 329.393 612.968C329.186 612.597 329.037 611.965 329.115 613.006C329.13 613.16 329.151 613.349 329.183 613.58C329.189 613.609 329.337 613.524 329.378 613.883C329.391 613.992 329.323 614.375 329.403 614.914C329.428 615.087 329.687 616.387 329.284 614.629C329.109 614.722 328.9 614.665 328.72 614.706C328.557 614.134 328.708 613.622 328.717 613.062C328.72 612.939 328.716 612.81 328.698 612.672C328.561 611.548 328.182 611 328.665 610.769C328.77 611.394 328.881 612.503 328.858 613.042C328.85 613.273 328.817 613.446 328.745 613.517C328.892 614.422 329.191 614.627 329.173 613.887C329.092 613.533 329.041 613.25 329.007 613.022C328.813 611.34 329.283 612.654 329.007 610.347C328.937 610.316 328.86 610.201 328.796 610.22C329.023 609.346 329.142 610.693 329.228 610.801ZM329.843 617.224C329.543 616.754 329.253 616.271 328.977 615.773C329.208 615.713 329.48 615.963 329.846 616.735C329.843 616.897 329.842 617.061 329.843 617.224ZM333.417 572.569C333.304 572.469 333.226 572.245 333.133 572.075C333.269 571.925 334.091 568.173 333.829 570.113C333.791 570.391 333.244 572.06 333.417 572.569ZM338.177 636.966C338.259 636.511 338.342 636.059 338.425 635.607C338.485 636.301 338.547 636.997 338.61 637.692C338.466 637.45 338.321 637.209 338.177 636.966ZM358.031 616.887C358.019 616.693 358.251 617.321 358.157 616.561C358.321 617.121 358.456 617.643 358.597 618.186C358.524 618.357 358.45 618.529 358.375 618.7C358.436 618.826 358.496 618.956 358.556 619.083C358.431 619.011 358.308 618.948 358.18 618.872C358.39 617.922 358.08 617.75 358.031 616.887ZM347.305 592.445C347.277 592.115 348.565 592.702 347.401 591.968C347.705 591.935 348.15 592.066 348.799 592.558C348.862 592.692 348.928 592.834 348.974 592.961C349.103 592.838 349.298 592.909 349.722 593.138C349.722 593.139 349.722 593.139 349.723 593.14C350.61 594.007 350.482 594.012 350.462 594.424C349.742 593.358 349.481 593.506 348.758 593.079C348.228 592.765 347.628 592.324 347.305 592.445ZM332.681 576.608C332.617 575.701 332.269 576.446 332.784 574.942C332.822 575.052 332.859 575.162 332.897 575.272C332.825 575.719 332.753 576.165 332.681 576.608ZM342.937 591.625C343.298 591.852 344.12 591.801 344.111 591.135C343.146 591.345 343.767 591.489 342.937 591.625ZM357.324 629.767C357.617 628.262 358.008 628.618 358.14 629.278C358.041 629.359 357.941 629.438 357.842 629.514C357.828 629.806 357.809 630.096 357.786 630.378C357.634 630.173 357.48 629.969 357.324 629.767ZM338.752 618.582C338.48 617.383 338.566 619.855 338.397 619.024C338.262 618.369 338.576 617.485 338.754 617.823C338.755 618.054 338.753 618.311 338.752 618.58C338.752 618.581 338.752 618.582 338.752 618.582ZM338.854 611.718C338.533 611.9 338.634 611.621 338.658 612.556C338.663 612.827 338.481 614.95 338.767 614.069C338.79 613.316 338.822 612.49 338.854 611.718ZM344.369 636.545C344.425 636.439 346.017 636.94 346.181 637.069C346.182 637.068 346.182 637.068 346.182 637.068C346.622 637.495 345.015 636.782 345.589 637.362C344.177 636.393 343.463 636.564 343.976 635.975C344.841 636.463 344.359 636.354 344.369 636.545ZM345.72 518.944C345.72 518.943 345.72 518.943 345.721 518.942C345.686 519.043 345.257 519.863 345.218 519.739C345.561 518.701 345.632 518.941 345.693 517.902C345.775 517.866 345.853 517.837 345.937 517.796C345.866 518.21 345.892 518.435 345.72 518.944ZM334.465 568.528C334.423 568.928 334.14 569.617 334.064 570.065C333.777 568.537 334.631 566.925 334.465 568.528ZM339.305 672.499C339.305 672.498 339.304 672.497 339.304 672.496C339.304 672.496 339.305 672.496 339.305 672.497C339.305 672.498 339.305 672.498 339.305 672.499ZM329.225 599.105C329.268 599.057 329.303 599.032 329.332 599.024C329.334 599.024 329.337 599.025 329.34 599.025C329.302 599.049 329.264 599.075 329.225 599.105ZM341.504 634.603C341.089 634.031 343.053 635.212 343.644 635.649C343.554 635.694 343.504 635.755 343.348 635.771C342.964 635.259 341.581 634.716 341.504 634.603ZM353.843 599.839C354.588 601.463 352.946 599.69 353.42 599.329C353.433 599.327 353.825 599.801 353.843 599.839ZM354.718 636.457C354.871 635.95 354.22 636.64 355.213 635.506C355.31 635.475 355.408 635.442 355.506 635.406C355.294 635.748 355.002 636.141 354.718 636.457ZM356.39 611.294C356.926 613.477 357.368 615.584 357.814 614.042C357.772 613.874 357.729 613.704 357.685 613.538C357.377 613.552 357.462 612.921 357.315 611.99C357.173 611.879 357.057 611.381 356.938 611.306C356.708 611.162 356.674 611.757 356.39 611.294ZM339.512 660.499C339.459 660.464 339.405 660.429 339.353 660.394C339.284 660.033 339.215 659.682 339.147 659.328C339.249 659.383 339.35 659.437 339.452 659.492C339.472 659.823 339.492 660.158 339.512 660.496C339.512 660.497 339.512 660.498 339.512 660.499ZM331.186 619.084C330.579 619.098 330.922 619.753 331.789 620.951C331.569 620.331 331.37 619.715 331.186 619.084ZM340.228 601.518C340.061 601.55 339.894 601.58 339.726 601.615C339.819 602.38 340.021 602.258 340.271 601.923C340.256 601.792 340.241 601.663 340.228 601.518ZM339.613 612.583C339.658 612.265 339.52 612.424 339.524 612.39C339.622 611.591 339.686 611.482 339.629 610.475C339.599 610.352 339.568 610.231 339.537 610.109C339.176 610.546 339.346 610.91 339.11 611.864C339.233 611.694 339.357 611.534 339.482 611.357C339.436 611.894 339.393 612.419 339.35 612.964C339.384 613.029 339.418 613.095 339.452 613.161C339.505 612.969 339.564 612.771 339.613 612.583ZM339.485 664.631C339.487 665.143 339.49 665.693 339.494 666.217C339.579 666.233 339.664 666.249 339.749 666.266C339.661 665.726 339.572 665.159 339.485 664.631ZM329.063 608.678C329.034 608.636 329.004 608.594 328.974 608.557C329.012 608.561 329.04 608.608 329.063 608.678ZM346.533 517.728C346.752 517.159 346.945 516.324 347.13 515.718C346.913 515.702 346.526 517.297 346.243 517.847C346.254 517.949 346.441 517.969 346.533 517.728ZM357.668 627.657C357.581 627.494 357.495 627.313 357.404 627.169C357.45 626.833 357.492 626.486 357.53 626.129C357.444 626.112 357.358 626.095 357.273 626.079C357.259 627.622 357.031 627.257 356.694 628.003C357.019 627.894 357.344 627.78 357.668 627.657ZM338.155 675.567C338.699 676.589 338.972 676.914 338.93 676.214C338.703 675.87 338.474 675.523 338.247 675.179C338.217 675.309 338.186 675.439 338.155 675.567ZM331.46 587.764C331.512 586.797 331.858 586.834 331.816 585.86C331.672 586.357 331.528 586.85 331.388 587.337C331.412 587.479 331.436 587.623 331.46 587.764ZM340.27 631.304C340.074 630.936 339.142 630.817 338.712 629.687C338.443 629.574 338.242 629.526 337.999 629.432C338.015 629.242 338.023 629.038 338.045 628.855C338.044 628.855 338.044 628.854 338.043 628.853C337.365 628.097 337.65 628.712 337.525 628.786C337.469 628.814 337.078 628.164 337.123 628.428C337.194 628.891 338.288 629.985 338.089 630.159C337.8 629.702 337.07 628.926 337.13 629.283C337.199 629.684 338.088 630.22 338.404 630.806C338.111 629.84 339.276 631.318 339.193 631.691C340.163 632.302 339.496 631.513 338.732 630.699C339.386 631.03 338.598 630.383 338.646 630.114C339.197 630.574 340.822 632.331 340.27 631.304ZM353.774 602.412C354.08 603.125 354.328 604.258 354.697 604.699C354.914 604.952 354.621 603.774 355.073 604.503C354.815 603.792 354.683 603.667 354.563 603.842C354.488 603.69 354.411 603.538 354.335 603.389C354.34 603.305 354.344 603.22 354.349 603.136C354.252 603.079 354.153 603.016 354.056 602.96C354.004 602.785 353.951 602.61 353.898 602.438C353.857 602.431 353.815 602.41 353.774 602.412ZM336.443 560.422C336.402 560.632 336.361 560.84 336.321 561.05C336.367 561.035 336.415 561.017 336.463 560.999C336.5 560.987 336.538 560.974 336.575 560.962C336.431 561.059 336.029 562.017 336.071 562.463C336.093 562.687 336.416 562.253 336.276 563.155C336.394 562.505 336.485 561.898 336.595 561.263C336.651 561.333 336.708 561.402 336.764 561.472C336.764 561.472 336.764 561.471 336.764 561.471C336.822 561.265 336.881 561.056 336.94 560.85C336.774 560.706 336.608 560.565 336.443 560.422ZM340.618 600.924C340.588 600.503 340.563 600.256 340.497 600.173C340.47 600.135 340.435 600.13 340.388 600.159C340.355 600.178 340.316 600.214 340.27 600.267C340.27 600.268 340.27 600.269 340.269 600.27C340.334 600.539 340.399 600.814 340.465 601.095C340.516 601.038 340.567 600.982 340.618 600.924ZM330.131 602.47C329.437 600.872 329.651 604.343 329.989 603.722C330.005 603.674 330.026 602.608 330.131 602.47ZM357.016 630.001C357.099 629.57 357.166 629.161 357.223 628.758C357.107 628.836 356.992 628.914 356.876 628.989C356.934 629.296 356.978 629.657 357.016 630.001ZM340.821 676.282C341.031 675.844 341.068 674.688 340.799 674.126C340.781 674.417 340.764 674.729 340.746 675.025C340.696 674.457 340.644 673.913 340.596 673.358C340.278 673.351 340.485 673.946 340.436 674.957C340.428 675.116 340.072 676.078 340.382 676.399C340.445 676.449 340.447 675.456 340.652 676.142C340.654 675.838 340.64 675.573 340.636 675.278C340.711 675.254 340.786 675.23 340.86 675.203C340.847 675.57 340.834 675.926 340.821 676.282ZM355.213 606.585C355.477 607.589 355.622 607.68 355.895 607.838C355.749 607.366 355.604 606.922 355.442 606.45C355.366 606.496 355.29 606.539 355.213 606.585ZM340.553 666.847C340.571 666.271 340.396 666.523 340.354 666.292C340.196 665.412 340.307 664.804 340.199 663.944C340.236 664 340.271 664.052 340.307 664.107C340.306 664.106 340.306 664.105 340.306 664.104C340.338 659.975 339.987 662.153 340.129 664.616C340.063 664.675 339.997 664.732 339.932 664.791C340.084 665.894 340.232 666.91 340.553 666.847ZM330.622 615.853C330.652 615.798 331.009 616.101 330.703 615.432C330.18 614.97 330.599 615.839 330.523 616.111C330.432 615.929 330.344 615.741 330.258 615.559C330.459 616.751 330.616 616.872 330.765 616.382C330.774 616.349 330.592 615.91 330.622 615.853ZM330.015 608.197C329.434 608.026 329.678 609.557 329.863 609.484C329.87 609.284 329.772 609.126 329.817 608.906C329.863 608.682 329.998 608.63 330.015 608.197ZM353.686 635.784C353.655 635.814 353.2 635.877 353.35 635.998C354.045 636.053 354.51 635.049 354.264 635.09C354.056 635.355 353.957 635.563 353.685 635.783C353.686 635.783 353.686 635.783 353.686 635.784ZM336.867 674.029C336.861 674.055 337.25 675.116 337.394 675.209C337.538 675.274 337.663 675.281 337.797 675.317C337.444 674.797 336.979 673.629 336.868 674.031C336.867 674.031 336.867 674.03 336.867 674.029ZM346.899 656.541C347.132 656.528 346.947 656.694 347.304 656.632C347.32 656.664 347.338 656.696 347.354 656.728C347.231 656.709 347.107 656.691 346.984 656.673C346.956 656.629 346.927 656.585 346.899 656.541C346.899 656.541 346.899 656.541 346.899 656.541ZM345.38 656.174C345.722 656.28 345.793 656.406 346.138 656.357C346.02 656.323 345.903 656.289 345.785 656.255C345.886 656.235 345.987 656.214 346.087 656.193C346.045 656.169 346.002 656.146 345.96 656.122C346.171 656.147 346.383 656.172 346.595 656.196C346.562 656.206 346.527 656.216 346.494 656.226C346.649 656.325 346.683 656.392 346.697 656.485C346.747 656.488 346.798 656.49 346.849 656.493C346.756 656.52 346.663 656.547 346.57 656.573C346.496 656.518 346.414 656.456 346.344 656.405C346.007 656.394 346.168 656.532 346.225 656.598C346.303 656.688 346.151 656.64 346.205 656.706C346.214 656.716 346.335 656.742 346.333 656.759C346.326 656.845 346.228 656.994 345.964 656.841C346.029 656.71 345.826 656.546 345.937 656.428C345.602 656.396 345.505 656.302 345.38 656.174ZM345.899 658.92C345.749 658.845 345.831 658.774 345.953 658.739C345.953 658.739 345.953 658.739 345.953 658.739C345.98 658.731 346.198 658.746 346.18 658.786C346.152 658.85 345.812 658.814 346.031 658.896C345.985 658.903 345.944 658.912 345.899 658.92ZM345.889 659.071C345.799 659.095 345.552 659.024 345.63 658.987C345.63 658.987 345.63 658.987 345.63 658.987C345.663 658.971 345.852 659.054 345.667 658.935C345.827 658.952 345.972 658.966 346.127 658.981C346.126 659.001 346.126 659.019 346.124 659.039C345.87 658.973 345.978 659.046 345.889 659.071ZM346.091 656.94C346.321 656.994 346.326 656.967 346.496 656.953C346.479 656.996 346.462 657.038 346.445 657.08C346.327 657.033 346.209 656.987 346.091 656.94ZM346.34 655.919C346.34 655.919 346.34 655.918 346.34 655.918C346.307 655.896 346.273 655.875 346.24 655.853C346.324 655.861 346.408 655.87 346.493 655.879C346.426 655.812 346.359 655.745 346.291 655.678C346.542 655.736 346.482 655.819 346.648 655.905C346.557 655.964 346.403 655.97 346.188 655.93C346.239 655.926 346.29 655.923 346.34 655.919ZM342.811 667.899C342.877 667.93 342.944 667.962 343.01 667.993C343.047 667.977 343.076 667.96 343.117 667.945C342.826 667.822 343.096 667.873 343.093 667.791C343.085 667.54 342.6 667.506 343.336 667.433C343.267 667.6 343.606 667.6 343.835 667.757C343.64 667.739 343.231 667.546 343.128 667.598C343.304 667.76 343.468 667.915 343.57 668.076C343.604 668.079 343.638 668.082 343.672 668.085C343.655 668.06 343.639 668.034 343.622 668.009C343.706 668.05 343.789 668.09 343.873 668.132C343.679 668.061 343.775 668.159 343.547 668.102C343.446 668.076 343.311 668.013 343.217 667.974C343.153 668.013 343.094 668.055 343.032 668.095C342.956 668.052 342.88 668.008 342.803 667.965C342.805 667.943 342.808 667.921 342.81 667.899C342.81 667.899 342.811 667.899 342.811 667.899ZM341.625 678.986C341.401 678.872 341.385 678.748 341.663 678.741C341.65 678.823 341.638 678.904 341.625 678.986ZM346.011 655.899C346.053 655.9 346.094 655.901 346.136 655.902C346.205 655.95 346.272 655.997 346.341 656.045C346.222 656.027 346.104 656.009 345.986 655.991C345.994 655.96 346.003 655.93 346.011 655.899ZM345.717 657.976C345.714 657.951 345.719 657.95 345.741 657.924C345.741 657.924 345.741 657.924 345.741 657.924C345.75 657.914 345.838 657.831 345.926 657.86C345.918 657.909 345.905 657.96 345.895 658.009C345.836 657.998 345.777 657.986 345.717 657.976ZM345.886 657.421C345.887 657.421 345.887 657.421 345.887 657.421C345.904 657.406 345.936 657.395 345.944 657.378C346.073 657.473 345.816 657.43 345.876 657.504C345.936 657.578 346.069 657.644 345.71 657.622C345.662 657.592 345.591 657.557 345.534 657.525C345.691 657.47 345.565 657.42 345.441 657.325C345.59 657.357 345.738 657.389 345.886 657.421ZM343.736 666.982C343.567 666.931 343.74 666.948 343.742 666.946C343.742 666.946 343.742 666.947 343.743 666.947C343.612 666.772 343.834 666.985 343.889 666.856C343.928 666.885 343.969 666.914 344.009 666.943C343.919 666.956 343.818 666.968 343.736 666.982ZM344.707 662.374C344.757 662.383 344.808 662.392 344.858 662.401C344.83 662.479 345.023 662.541 344.829 662.57C344.788 662.505 344.747 662.439 344.706 662.374C344.706 662.374 344.706 662.374 344.707 662.374ZM345.268 658.306C345.191 658.197 345.162 658.122 345.332 658.068C345.332 658.068 345.332 658.068 345.332 658.068C345.343 658.065 345.443 658.11 345.471 658.109C345.458 658.089 345.438 658.065 345.423 658.043C345.508 658.058 345.592 658.074 345.676 658.088C345.642 658.134 345.608 658.179 345.573 658.225C345.624 658.227 345.674 658.23 345.725 658.233C345.742 658.281 345.758 658.329 345.774 658.377C345.64 658.333 345.505 658.29 345.37 658.247C345.336 658.266 345.302 658.286 345.268 658.306ZM343.88 663.601C343.938 663.598 344.024 663.643 344.076 663.631C344.127 663.618 344.033 663.557 344.186 663.598C344.201 663.632 344.218 663.668 344.233 663.703C344.532 663.663 344.3 663.514 344.644 663.584C344.536 663.659 344.562 663.744 344.638 663.854C344.366 663.794 344.148 663.655 343.88 663.658C343.88 663.639 343.879 663.619 343.881 663.601C343.881 663.601 343.88 663.601 343.88 663.601ZM342.856 653.886C342.888 653.835 342.803 653.686 342.977 653.649C343.019 653.64 343.539 653.688 343.606 653.702C343.831 653.75 343.847 653.826 344.01 653.782C344.006 653.808 344.01 653.834 344.008 653.86C344.161 653.886 344.313 653.913 344.465 653.94C344.448 653.905 344.432 653.87 344.415 653.835C344.465 653.844 344.516 653.853 344.566 653.862C344.545 653.971 344.752 653.947 344.92 654.041C345.022 654.007 345.124 653.973 345.226 653.94C345.208 653.968 345.193 654.002 345.174 654.025C345.43 654.082 345.382 654.006 345.432 654.005C345.714 654 345.514 654.282 345.882 654.385C345.934 654.344 345.985 654.301 346.037 654.258C346.08 654.282 346.123 654.307 346.166 654.331C345.885 654.392 345.766 654.502 345.578 654.603C345.586 654.617 345.595 654.632 345.602 654.646C345.719 654.666 345.835 654.687 345.952 654.707C345.962 654.728 345.972 654.75 345.982 654.771C345.611 654.638 345.6 654.713 345.349 654.755C345.224 654.68 345.318 654.637 345.067 654.59C345.225 654.794 344.914 654.93 345.098 655.135C345.143 655.186 345.466 655.252 345.417 655.339C345.382 655.329 345.318 655.315 345.272 655.303C345.393 655.497 345.465 655.614 345.273 655.749C345.391 655.763 345.509 655.778 345.627 655.792C345.577 655.745 345.526 655.697 345.475 655.649C345.672 655.665 345.749 655.718 345.769 655.611C345.785 655.524 345.69 655.558 345.638 655.523C345.567 655.475 345.726 655.478 345.646 655.426C345.585 655.386 345.421 655.382 345.476 655.32C345.675 655.391 345.88 655.463 346.082 655.534C346.032 655.542 345.982 655.549 345.932 655.556C345.88 655.528 345.83 655.499 345.779 655.471C345.864 655.552 345.945 655.628 346.034 655.711C345.743 655.63 345.84 655.717 345.868 655.76C345.911 655.826 345.717 655.737 345.744 655.779C345.771 655.822 345.99 655.908 345.928 655.963C345.804 655.901 345.676 655.923 345.556 655.889C345.437 655.855 345.424 655.781 345.277 655.819C345.352 655.966 345.844 655.925 345.901 656.026C345.97 656.147 345.21 656.015 345.054 655.951C344.931 655.901 344.974 655.823 344.852 655.773C344.592 655.873 345.045 655.968 345.128 656.012C345.432 656.171 344.583 655.931 344.872 656.104C344.712 656.069 344.567 656.037 344.413 656.003C344.438 656.028 344.475 656.049 344.493 656.076C344.821 656.074 344.796 656.126 344.791 656.154C344.783 656.199 344.95 656.162 344.987 656.182C345.087 656.236 345.028 656.276 345.173 656.274C345.106 656.274 345.038 656.276 344.971 656.277C345.041 656.345 345.688 656.606 345.576 656.462C345.824 656.525 345.696 656.537 345.652 656.559C345.608 656.58 345.767 656.612 345.732 656.632C345.593 656.71 345.335 656.587 345.125 656.526C345.244 656.692 345.369 656.58 345.427 656.795C345.597 656.85 345.801 656.798 345.886 656.894C345.581 656.845 345.352 656.855 345.23 656.942C345.297 656.967 345.365 656.992 345.432 657.016C345.141 657.017 344.858 656.927 345.181 657.108C344.557 656.918 344.956 657.042 344.677 657.086C344.62 657.095 344.498 657.022 344.425 657.035C344.392 657.042 344.486 657.093 344.403 657.107C344.361 657.114 344.102 657.133 344.208 657.205C344.524 657.234 344.767 657.38 345.038 657.354C344.945 657.486 345.072 657.619 344.686 657.369C344.585 657.386 344.484 657.404 344.384 657.422C344.452 657.463 344.519 657.504 344.587 657.545C344.333 657.496 344.263 657.478 344.286 657.588C344.236 657.532 344.184 657.475 344.133 657.419C344.082 657.407 344.03 657.39 343.98 657.381C344.066 657.455 344.077 657.616 344.136 657.667C344.196 657.718 344.229 657.65 344.293 657.674C344.813 657.874 344.417 657.785 344.497 657.868C344.544 657.916 344.621 657.84 344.641 657.864C344.711 657.956 344.417 657.931 344.4 657.996C344.567 658.006 344.737 658.017 344.906 658.029C344.883 658.095 344.866 658.172 344.905 658.247C344.92 658.276 345.045 658.282 345.052 658.288C345.09 658.317 345.138 658.413 345.137 658.422C345.124 658.488 344.956 658.455 344.934 658.517C344.925 658.489 344.917 658.463 344.908 658.436C344.639 658.368 344.37 658.301 344.1 658.233C344.067 658.292 344.035 658.351 344.002 658.409C344.103 658.382 344.202 658.355 344.303 658.327C344.507 658.445 344.712 658.562 344.917 658.68C344.775 658.689 344.632 658.699 344.49 658.708C344.504 658.817 345.055 658.91 344.566 658.859C344.6 658.897 344.635 658.936 344.669 658.974C344.601 658.956 344.533 658.937 344.466 658.919C344.501 658.964 344.535 659.008 344.57 659.053C344.82 659.065 345.083 659.081 345.325 659.092C345.363 659.174 345.158 659.133 345.104 659.133C344.962 659.133 345.134 659.227 345.004 659.223C344.959 659.222 344.838 659.124 344.677 659.116C344.646 659.114 344.053 659.089 344.173 659.176C344.278 659.196 344.406 659.218 344.519 659.239C344.566 659.332 344.015 659.261 343.865 659.218C343.963 659.283 343.959 659.347 344.123 659.391C344.123 659.413 344.122 659.436 344.122 659.458C343.722 659.352 343.777 659.458 344.124 659.536C344.14 659.5 344.157 659.465 344.173 659.429C344.594 659.546 344.875 659.485 344.431 659.64C344.2 659.639 344.478 659.566 344.304 659.568C344.194 659.612 344.262 659.689 344.095 659.718C343.887 659.754 343.72 659.622 343.929 659.85C344.626 659.588 344.334 659.99 344.487 660.212C343.869 660.136 343.644 660.251 343.781 660.501C343.955 660.514 343.882 660.429 343.945 660.402C344.009 660.375 344.101 660.438 344.19 660.406C344.279 660.374 344.407 660.294 344.537 660.271C344.624 660.332 344.809 660.582 344.564 660.391C344.376 660.457 344.194 660.468 344.137 660.586C344.393 660.678 344.558 660.709 344.54 660.832C344.188 660.685 343.905 660.77 343.532 660.661C343.638 660.593 343.997 660.717 344.183 660.704C344.202 660.703 344.126 660.603 344.137 660.586C343.789 660.599 343.66 660.601 343.277 660.47C343.299 660.534 343.242 660.559 343.429 660.604C343.345 660.599 343.261 660.594 343.177 660.589C343.175 660.608 343.18 660.626 343.174 660.645C343.463 660.677 343.278 660.693 343.398 660.757C343.519 660.822 343.754 660.818 343.735 660.921C343.809 660.901 343.872 660.881 343.942 660.861C344.001 660.942 344.061 661.024 344.12 661.105C344.303 661.095 344.581 661.047 344.809 661.097C344.716 661.11 344.846 661.246 344.85 661.258C344.864 661.308 344.725 661.254 344.721 661.256C344.637 661.312 344.674 661.379 344.45 661.36C344.538 661.433 344.474 661.461 344.468 661.518C344.464 661.549 344.626 661.576 344.592 661.588C344.364 661.665 344.181 661.508 344.527 661.819C344.644 661.815 344.764 661.811 344.882 661.806C344.919 661.841 344.956 661.875 344.993 661.91C344.969 661.923 344.945 661.936 344.921 661.949C344.679 661.899 344.437 661.848 344.196 661.798C344.178 661.814 344.162 661.831 344.145 661.847C344.128 661.809 344.11 661.772 344.093 661.734C344.052 661.722 344.01 661.711 343.968 661.699C343.892 661.734 343.815 661.768 343.739 661.803C343.823 661.821 343.907 661.84 343.991 661.858C343.851 661.943 343.78 661.931 343.99 662.083C343.971 662.162 344.309 662.3 344.447 662.377C344.397 662.384 344.345 662.39 344.295 662.397C344.363 662.422 344.43 662.448 344.498 662.473C344.396 662.474 344.294 662.475 344.193 662.476C344.412 662.533 344.479 662.554 344.574 662.488C344.843 662.573 344.692 662.692 344.587 662.732C344.508 662.762 344.289 662.665 344.26 662.665C344.162 662.664 344.228 662.754 344.209 662.767C344.13 662.819 344.132 662.867 344.069 662.915C344.057 662.925 343.905 662.927 343.9 662.929C343.871 662.945 343.789 662.983 343.786 662.988C343.614 663.273 344.312 663.075 344.186 663.347C344.271 663.356 344.355 663.365 344.44 663.374C344.44 663.396 344.441 663.419 344.441 663.442C344.366 663.455 344.247 663.396 344.337 663.471C344.236 663.446 344.134 663.422 344.033 663.397C344.083 663.432 344.134 663.466 344.184 663.502C343.821 663.466 343.711 663.588 343.296 663.492C343.155 663.459 343.03 663.331 342.868 663.352C342.829 663.388 343.004 663.394 343.01 663.413C343.046 663.55 342.81 663.494 342.863 663.558C342.963 663.587 343.065 663.617 343.166 663.646C343.132 663.659 343.098 663.673 343.064 663.686C343.132 663.704 343.199 663.723 343.267 663.742C343.275 663.725 343.284 663.705 343.292 663.69C343.552 663.768 343.627 664.005 343.418 663.877C343.333 663.825 343.385 663.773 343.064 663.746C343.097 663.812 343.13 663.886 343.162 663.955C343.095 663.943 343.027 663.931 342.959 663.919C342.986 664.008 343.271 663.991 343.415 664.021C343.415 664.04 343.415 664.06 343.415 664.079C343.348 664.073 343.278 664.066 343.213 664.062C343.317 664.084 343.557 664.144 343.455 664.181C343.39 664.204 343.139 664.094 343.162 664.169C343.325 664.197 343.527 664.214 343.564 664.3C343.393 664.272 343.236 664.25 343.057 664.219C343.2 664.346 342.93 664.335 343.096 664.483C343.202 664.578 343.606 664.761 342.943 664.67C342.915 664.717 343.082 664.735 343.115 664.758C343.274 664.865 342.953 664.853 342.932 664.863C342.797 664.923 342.897 664.983 342.736 665.021C342.858 665.043 342.973 665.064 343.092 665.086C342.923 664.985 342.938 664.955 342.996 664.875C343.014 664.91 343.033 664.944 343.051 664.979C343.15 664.994 343.249 665.01 343.348 665.026C343.018 664.672 343.616 664.863 343.702 665.119C343.516 665.101 343.331 665.084 343.144 665.066C343.393 665.255 343.14 665.268 343.052 665.406C343.042 665.422 343.133 665.509 343.133 665.538C343.134 665.537 343.134 665.537 343.135 665.537C343.303 665.59 343.387 665.583 343.541 665.612C343.557 665.631 343.573 665.65 343.59 665.669C343.466 665.678 343.372 665.647 343.386 665.719C343.504 665.734 343.623 665.749 343.741 665.764C343.73 665.838 343.594 665.859 343.634 665.938C343.593 665.918 343.551 665.897 343.509 665.877C343.366 666.001 342.705 665.742 343.023 665.924C342.962 665.918 342.9 665.913 342.839 665.907C342.834 665.858 342.829 665.81 342.824 665.761C342.739 665.743 342.655 665.724 342.571 665.706C342.586 665.76 342.602 665.815 342.617 665.869C342.568 665.821 342.519 665.774 342.469 665.726C342.417 665.775 342.365 665.823 342.312 665.871C342.636 665.876 342.658 665.962 342.969 666.011C342.692 666.058 342.337 666.067 342.521 666.268C342.558 666.308 342.777 666.336 342.497 666.369C342.843 666.419 342.981 666.562 343.31 666.615C343.301 666.582 343.297 666.548 343.284 666.514C343.164 666.525 342.852 666.466 342.771 666.395C342.667 666.306 342.902 666.255 342.556 666.187C342.578 666.165 342.592 666.142 342.611 666.12C342.695 666.148 342.779 666.176 342.862 666.204C342.743 666.104 342.796 666.068 343.019 666.078C343.051 666.174 343.082 666.27 343.113 666.366C343.131 666.356 343.148 666.347 343.165 666.337C343.372 666.448 343.594 666.424 343.616 666.555C343.516 666.533 343.415 666.512 343.314 666.49C343.574 666.59 343.548 666.711 343.866 666.736C343.763 666.753 343.701 666.748 343.864 666.803C343.609 666.851 343.298 666.851 342.949 666.743C342.999 666.791 343.049 666.838 343.099 666.886C343.2 666.885 343.302 666.885 343.403 666.884C343.384 666.945 343.365 667.007 343.347 667.067C343.058 667.014 343.284 666.93 343.02 666.913C342.966 666.909 343.07 666.966 343.039 666.968C342.705 666.996 342.963 666.897 342.716 666.875C342.613 666.998 342.232 666.803 342.532 667.064C342.448 667.052 342.362 667.04 342.278 667.027C342.26 667.092 342.448 667.126 342.472 667.19C342.487 667.23 342.148 667.207 342.364 667.292C342.404 667.308 342.821 667.325 342.774 667.461C342.738 667.565 342.463 667.462 342.35 667.499C342.237 667.537 342.604 667.752 342.149 667.698C342.214 667.68 342.254 667.648 342.31 667.624C342.225 667.592 342.142 667.561 342.058 667.529C342.155 667.63 342.005 667.683 342.202 667.778C341.863 667.816 342.134 667.992 342.499 668.035C342.455 667.991 342.291 667.995 342.4 667.969C342.485 667.981 342.569 667.993 342.654 668.006C342.627 668.084 342.618 668.14 342.37 668.051C342.362 668.062 342.353 668.073 342.344 668.084C342.528 668.125 342.713 668.165 342.897 668.206C342.915 668.225 342.932 668.244 342.95 668.263C342.906 668.271 342.862 668.28 342.817 668.288C342.53 668.205 342.528 668.164 342.339 668.258C342.439 668.279 342.54 668.3 342.641 668.322C342.49 668.401 342.245 668.354 342.227 668.489C341.898 668.314 342.53 668.387 341.828 668.242C341.879 668.225 341.931 668.209 341.983 668.193C341.882 668.168 341.781 668.143 341.68 668.118C341.705 668.267 342.327 668.635 341.864 668.636C341.916 668.658 341.96 668.679 342.016 668.703C341.73 668.738 342.323 668.901 341.958 668.922C341.919 668.923 341.358 668.787 341.353 668.91C341.428 668.923 341.552 668.947 341.645 668.963C341.594 668.98 341.542 668.996 341.49 669.012C341.557 669.031 341.624 669.05 341.692 669.069C341.727 669.03 341.763 668.991 341.798 668.953C341.814 668.994 341.83 669.036 341.846 669.077C341.966 669.053 341.972 669.031 342.144 669.097C342.146 669.141 342.149 669.185 342.151 669.228C342.195 669.242 342.24 669.256 342.285 669.27C342.425 669.278 342.562 669.285 342.704 669.293C342.571 669.378 342.545 669.471 342.261 669.499C342.213 669.504 342.046 669.417 342.186 669.547C342.092 669.529 342.015 669.516 341.928 669.499C342.166 669.672 342.08 669.694 341.865 669.778C342.058 669.735 341.929 669.783 342.019 669.823C342.082 669.85 342.083 669.794 342.15 669.814C342.217 669.834 342.476 669.961 342.522 669.908C341.991 669.644 342.671 669.742 342.44 669.496C342.506 669.541 342.573 669.585 342.639 669.629C342.691 669.626 342.738 669.623 342.794 669.619C342.662 669.702 342.744 669.665 342.821 669.727C342.899 669.788 342.956 669.883 342.969 669.941C342.973 669.959 342.851 669.915 342.831 669.951C342.818 669.975 342.99 670.084 342.766 670.054C342.621 670.035 342.249 669.84 342.218 669.997C342.071 669.997 342.131 669.931 342.114 669.926C341.95 669.878 341.804 669.948 341.922 670.019C341.933 670.024 342.07 670.016 342.114 670.065C342.217 670.181 342.057 670.202 341.842 670.219C342.078 670.274 342.346 670.409 342.238 670.485C342.305 670.504 342.373 670.523 342.44 670.542C342.407 670.52 342.375 670.498 342.342 670.476C342.388 670.468 342.422 670.458 342.476 670.453C342.514 670.56 342.838 670.641 342.949 670.711C343.325 670.952 342.48 670.679 342.337 670.62C342.402 670.612 342.473 670.606 342.541 670.599C342.457 670.584 342.374 670.569 342.29 670.554C342.244 670.788 341.747 670.479 341.569 670.566C341.969 670.68 341.99 670.776 341.709 670.833C341.708 670.846 341.706 670.858 341.706 670.871C341.765 670.886 341.856 670.904 341.894 670.916C341.935 671.064 341.305 670.958 341.243 670.958C340.968 670.96 341.323 671.079 341.323 671.097C341.321 671.169 341.155 671.156 341.211 671.237C341.271 671.324 341.405 671.301 341.511 671.345C341.596 671.381 341.6 671.441 341.686 671.483C341.614 671.458 341.542 671.433 341.469 671.408C341.352 671.461 341.24 671.501 341.198 671.58C341.725 671.788 340.786 671.678 341.541 671.8C341.608 671.731 341.703 671.704 341.902 671.701C341.916 671.758 341.929 671.816 341.942 671.873C341.857 671.871 341.775 671.866 341.687 671.866C341.853 671.942 341.76 672.017 341.804 672.063C342.009 672.279 342.317 672.289 341.786 672.338C341.76 672.218 341.517 672.168 341.573 672.066C341.395 672.054 341.419 672.117 341.219 672.038C341.248 672.154 341.441 672.158 341.597 672.233C341.732 672.298 341.725 672.371 341.91 672.405C341.807 672.391 341.708 672.377 341.605 672.363C341.592 672.431 341.578 672.499 341.565 672.568C341.465 672.517 341.365 672.466 341.266 672.415C341.221 672.429 341.177 672.442 341.132 672.456C341.427 672.692 340.763 672.856 341.6 672.981C341.61 673.068 341.504 673.056 341.338 673.068C341.4 673.086 341.451 673.101 341.52 673.12C341.444 673.159 341.671 673.248 341.6 673.281C341.53 673.315 341.305 673.28 341.678 673.364C341.564 673.372 341.469 673.383 341.363 673.392C341.444 673.427 341.525 673.463 341.606 673.498C341.555 673.516 341.505 673.535 341.455 673.554C341.63 673.606 341.531 673.7 341.641 673.773C341.438 673.779 340.832 673.652 340.918 673.783C341.069 673.811 341.22 673.84 341.371 673.868C341.335 673.886 341.298 673.905 341.262 673.923C341.212 673.915 341.163 673.906 341.113 673.897C341.131 673.887 341.149 673.878 341.167 673.869C341.082 673.862 340.997 673.856 340.911 673.85C341.027 673.913 341.142 673.976 341.257 674.04C341.361 674.008 341.465 673.976 341.569 673.944C341.666 674.031 341.547 674.053 341.658 674.135C341.44 674.14 341.324 674.097 341.103 674.031C341.119 674.053 341.133 674.075 341.149 674.097C340.926 674.039 340.785 674.041 340.825 673.94C340.759 673.933 340.697 673.928 340.628 673.921C340.635 673.941 340.578 673.941 340.599 673.965C340.656 674.031 341.044 674.153 341.184 674.178C341.257 674.191 341.128 674.111 341.231 674.134C341.48 674.191 341.343 674.285 341.63 674.168C341.778 674.257 341.655 674.245 341.596 674.297C341.681 674.31 341.765 674.322 341.849 674.335C341.805 674.356 341.761 674.376 341.716 674.397C341.295 674.268 341.09 674.447 340.754 674.178C340.723 674.231 340.692 674.283 340.661 674.335C340.619 674.314 340.578 674.293 340.536 674.273C340.565 674.252 340.593 674.232 340.621 674.211C340.534 674.224 340.448 674.238 340.361 674.251C340.446 674.342 340.594 674.401 340.777 674.473C340.932 674.419 340.738 674.407 340.713 674.335C340.833 674.362 340.944 674.382 341.069 674.414C340.813 674.396 340.972 674.541 340.979 674.568C341 674.652 340.768 674.542 340.753 674.591C340.737 674.641 340.87 674.731 340.619 674.723C340.755 674.75 340.896 674.776 341.02 674.798C341.049 674.887 340.892 674.838 340.869 674.842C340.501 674.902 340.774 675.032 340.778 675.189C340.824 675.179 340.866 675.168 340.91 675.157C341.174 675.329 341.102 675.235 341.217 675.157C341.17 675.243 341.404 675.346 341.464 675.426C341.523 675.506 341.374 675.591 341.267 675.611C341.128 675.486 341.253 675.407 341.231 675.295C341.091 675.278 340.971 675.265 340.817 675.245C341.094 675.368 340.892 675.365 340.85 675.377C340.724 675.415 340.974 675.464 340.698 675.446C340.79 675.463 340.868 675.478 340.955 675.494C340.89 675.612 340.699 675.713 341.023 675.865C340.8 675.827 340.585 675.789 340.358 675.75C340.513 675.838 340.333 675.848 340.363 675.901C340.393 675.953 340.575 675.974 340.633 676.04C340.644 676.052 340.528 676.049 340.605 676.09C340.683 676.132 341.282 676.348 340.741 676.247C340.729 676.292 340.7 676.33 340.682 676.372C340.661 676.323 340.64 676.274 340.619 676.225C340.48 676.235 340.342 676.244 340.204 676.253C340.32 676.282 340.437 676.311 340.552 676.34C340.673 676.467 340.468 676.499 340.492 676.608C340.496 676.626 340.735 676.635 340.661 676.696C340.587 676.758 340.146 676.723 340.286 676.883C340.293 676.891 340.615 676.996 340.377 676.994C340.324 676.994 340.256 676.935 340.183 676.944C340.111 676.954 340.033 677.047 339.87 677.021C339.927 677.032 339.988 677.038 340.047 677.047C340.07 677.07 340.094 677.094 340.117 677.118C340.016 677.099 339.915 677.079 339.814 677.06C340.027 677.212 340.399 677.344 340.241 677.47C340.396 677.458 340.552 677.445 340.707 677.433C340.607 677.4 340.506 677.367 340.405 677.334C340.461 677.272 340.516 677.21 340.572 677.148C340.457 677.113 340.343 677.077 340.228 677.041C340.247 677.026 340.266 677.01 340.285 676.995C340.368 677.017 340.452 677.039 340.535 677.062C340.522 677.02 340.508 676.979 340.495 676.938C340.979 677.116 340.41 677.138 340.829 677.215C340.761 677.218 340.692 677.221 340.624 677.224C340.825 677.273 340.759 677.295 340.715 677.348C340.818 677.355 340.919 677.36 341.023 677.369C340.87 677.397 340.863 677.502 340.796 677.551C340.767 677.572 340.625 677.516 340.606 677.52C340.508 677.541 340.748 677.671 340.725 677.683C340.584 677.754 340.085 677.715 340.384 677.886C340.485 677.795 340.44 677.846 340.626 677.845C340.684 677.844 340.829 677.729 340.741 677.893C340.731 677.912 340.329 678.159 340.094 678.002C340.165 678.07 340.252 678.13 340.329 678.195C339.627 678.169 340.273 678.261 340.63 678.301C340.628 678.32 340.628 678.338 340.624 678.358C340.264 678.24 340.197 678.445 340.369 678.555C340.426 678.592 340.557 678.549 340.602 678.616C340.57 678.637 340.531 678.66 340.496 678.682C340.737 678.69 340.811 678.787 341.048 678.835C340.827 678.842 340.371 678.788 340.134 678.71C340.223 678.772 340.313 678.834 340.403 678.896C340.463 678.889 340.523 678.881 340.583 678.873C340.406 678.978 340.709 679.224 340.205 679.149C340.205 679.168 340.204 679.187 340.204 679.206C340.287 679.229 340.37 679.252 340.453 679.275C340.363 679.341 340.273 679.408 340.183 679.474C340.146 679.391 340.029 679.349 340.142 679.293C340.04 679.302 339.936 679.312 339.833 679.321C340.07 679.489 340.238 679.541 340.125 679.698C340.119 679.705 339.874 679.79 339.852 679.79C339.75 679.791 339.615 679.73 339.564 679.729C339.421 679.726 339.043 679.808 338.992 679.795C338.359 679.624 338.458 679.105 338.454 678.958C338.413 677.434 339.164 676.107 339.385 674.646C339.387 674.631 339.291 674.618 339.289 674.611C339.273 674.567 339.428 674.559 339.437 674.545C339.456 674.517 339.317 674.506 339.321 674.483C339.371 674.249 339.497 674.044 339.522 673.805C339.524 673.789 339.63 673.828 339.616 673.797C339.608 673.781 339.45 673.703 339.454 673.671C339.468 673.56 339.541 673.479 339.562 673.364C339.574 673.3 339.607 673.209 339.619 673.138C339.625 673.107 339.555 673.058 339.559 673.027C339.564 672.983 339.717 673.024 339.728 673.019C339.777 672.998 339.607 672.959 339.617 672.932C339.636 672.882 339.75 672.902 339.754 672.834C339.757 672.786 339.69 672.659 339.676 672.594C339.836 672.483 339.82 672.297 339.803 672.158C339.793 672.076 339.954 672.102 339.96 672.07C339.98 671.959 339.794 671.834 339.809 671.729C339.829 671.589 339.988 671.495 340.025 671.364C340.031 671.343 339.885 671.318 339.885 671.296C339.888 671.214 339.882 671.109 339.917 671.043C339.956 670.97 340.174 670.985 340.146 670.9C340.138 670.875 339.954 670.83 339.938 670.788C339.913 670.72 340.09 670.688 340.117 670.65C340.153 670.598 339.954 670.609 339.995 670.537C339.997 670.534 340.134 670.55 340.131 670.533C340.123 670.48 340.016 670.463 340.041 670.395C340.043 670.388 340.191 670.321 340.194 670.312C340.207 670.258 340.275 670.157 340.254 670.119C340.181 669.983 339.959 670.032 340.42 670.025C340.321 669.959 340.221 669.893 340.126 669.825C340.217 669.876 340.384 669.781 340.377 669.77C340.318 669.683 340.138 669.69 340.185 669.604C340.556 669.808 340.261 669.496 340.262 669.441C340.266 669.173 340.413 668.96 340.464 668.7C340.481 668.613 340.421 668.48 340.442 668.389C340.447 668.367 340.537 668.403 340.543 668.384C340.549 668.366 340.439 668.365 340.449 668.345C340.513 668.219 340.733 668.156 340.51 667.982C340.547 667.984 340.576 667.99 340.617 667.988C340.416 667.842 340.754 667.712 340.81 667.648C340.898 667.548 340.753 667.488 340.801 667.412C340.864 667.312 341.191 667.21 340.691 667.182C340.691 667.105 340.702 667.032 340.763 666.966C340.77 666.959 340.892 666.99 340.895 666.987C340.917 666.97 340.808 666.94 340.806 666.925C340.8 666.883 340.919 666.974 340.894 666.911C340.88 666.877 340.787 666.841 340.802 666.759C340.893 666.267 341.038 665.743 341.158 665.244C341.166 665.21 341.042 665.208 341.058 665.166C341.116 665.021 341.372 664.794 341.372 664.659C341.371 664.524 341.191 664.517 341.135 664.421C341.124 664.402 341.22 664.436 341.225 664.422C341.254 664.328 341.432 664.247 341.471 664.175C341.497 664.127 341.34 664.099 341.337 664.061C341.331 664.005 341.5 663.983 341.511 663.956C341.561 663.829 341.453 663.711 341.543 663.601C341.508 663.599 341.475 663.595 341.44 663.593C341.476 663.447 341.512 663.303 341.548 663.157C341.515 663.158 341.482 663.158 341.449 663.158C341.501 662.99 341.838 663.08 341.116 662.946C341.093 662.929 341.066 662.909 341.045 662.893C341.415 662.974 341.707 662.927 341.829 662.814C341.838 662.806 341.49 662.666 341.916 662.761C341.815 662.723 341.745 662.698 341.656 662.664C341.791 662.663 341.925 662.661 342.059 662.66C342.043 662.641 342.028 662.622 342.011 662.603C341.928 662.583 341.841 662.567 341.76 662.545C341.762 662.472 341.895 662.35 341.896 662.293C341.897 662.15 341.7 661.963 341.967 661.906C341.953 661.849 341.778 661.867 341.815 661.794C341.9 661.802 341.981 661.81 342.068 661.819C341.71 661.679 341.939 661.712 342.034 661.642C342.099 661.594 342.016 661.537 342.046 661.484C342.053 661.471 342.162 661.496 342.16 661.485C342.156 661.451 342.025 661.327 342.026 661.303C342.029 661.087 342.083 660.913 342.164 660.723C342.172 660.703 342.059 660.708 342.068 660.687C342.083 660.653 342.243 660.708 342.256 660.689C342.289 660.637 342.115 660.6 342.123 660.519C342.147 660.25 342.34 659.975 342.409 659.703C342.411 659.695 342.308 659.674 342.309 659.665C342.317 659.603 342.468 659.57 342.478 659.514C342.494 659.423 342.365 659.324 342.384 659.234C342.422 659.057 342.528 658.915 342.569 658.734C342.604 658.586 342.617 658.454 342.651 658.291C342.8 657.579 342.627 656.785 342.948 656.104C342.956 656.087 343.045 656.113 343.042 656.107C343.014 656.046 342.893 656.016 343.152 656.05C343.116 655.972 342.928 655.911 342.959 655.832C342.975 655.79 343.265 655.884 343.127 655.779C343.003 655.684 342.825 655.724 343.032 655.561C343.038 655.557 343.224 655.568 343.185 655.518C343.147 655.467 343.008 655.488 342.989 655.381C342.946 655.129 343.164 654.867 343.171 654.586C343.172 654.569 343.109 654.385 343.071 654.344C342.997 654.264 342.86 654.249 342.844 654.161C342.832 654.093 342.995 654.073 342.98 653.993C342.978 653.984 342.824 653.937 342.856 653.886ZM343.059 668.232C343.209 668.279 343.769 668.424 343.578 668.481C343.56 668.486 343.181 668.358 343.108 668.396C343.077 668.338 343.074 668.287 343.058 668.232C343.058 668.232 343.058 668.232 343.059 668.232ZM346.546 654.232C346.503 654.295 346.46 654.359 346.418 654.422C346.359 654.36 346.301 654.298 346.242 654.237C346.343 654.235 346.444 654.234 346.546 654.232ZM344.495 662.782C344.495 662.782 344.495 662.782 344.495 662.782C344.553 662.869 344.611 662.957 344.669 663.045C344.617 663.026 344.565 663.007 344.513 662.989C344.44 662.914 344.367 662.839 344.295 662.764C344.362 662.77 344.429 662.776 344.495 662.782ZM344.046 662.09C344.119 662.057 344.224 662.09 344.335 662.087C344.334 662.087 344.334 662.087 344.334 662.087C344.363 662.085 344.393 662.059 344.4 662.048C344.331 662.038 344.264 662.03 344.196 662.021C344.055 661.879 344.679 661.788 344.855 662.11C344.771 662.088 344.687 662.067 344.603 662.045C344.599 662.186 344.383 662.3 344.046 662.09ZM343.077 669.378C343.332 669.552 343.383 669.601 343.162 669.703C343.087 669.667 343.013 669.63 342.938 669.594C343.023 669.588 343.108 669.581 343.193 669.574C343.193 669.574 343.193 669.574 343.193 669.574C343.11 669.552 343.026 669.53 342.942 669.508C342.987 669.465 343.032 669.421 343.077 669.378ZM345.168 657.681C345.732 657.764 345.406 657.706 345.513 657.825C345.55 657.866 345.653 657.855 345.666 657.878C345.732 658.004 345.357 657.935 345.168 657.871C345.167 657.808 345.168 657.743 345.168 657.681C345.168 657.681 345.168 657.681 345.168 657.681ZM345.631 654.864C345.631 654.864 345.631 654.863 345.631 654.863C345.767 654.889 345.795 654.94 345.934 654.917C345.926 654.954 345.917 654.991 345.909 655.029C345.898 655.015 345.888 655.002 345.878 654.988C345.829 654.988 345.78 654.988 345.732 654.988C345.885 655.033 345.792 655.027 345.731 655.055C345.9 655.079 346.069 655.103 346.238 655.126C346.179 655.162 346.12 655.197 346.061 655.232C346.019 655.224 345.977 655.216 345.934 655.208C345.985 655.236 346.035 655.264 346.086 655.292C346.034 655.287 345.984 655.281 345.933 655.275C345.966 655.304 346 655.332 346.034 655.361C345.911 655.342 345.868 655.286 345.883 655.373C345.763 655.322 345.644 655.272 345.524 655.221C345.56 655.102 345.595 654.983 345.631 654.864ZM345.165 658.559C345.17 658.42 345.25 658.476 345.519 658.564C345.401 658.562 345.283 658.56 345.165 658.559ZM343.495 665.391C343.675 665.468 343.853 665.546 344.026 665.623C344.115 665.724 343.756 665.732 343.634 665.645C343.488 665.54 343.683 665.502 343.495 665.391ZM343.206 667.207C343.313 667.129 343.518 667.266 343.644 667.315C343.429 667.298 343.44 667.339 343.403 667.394C343.401 667.335 343.188 667.22 343.206 667.207C343.206 667.207 343.206 667.207 343.206 667.207ZM344.028 663.879C344.031 663.839 343.986 663.789 344.057 663.768C344.235 663.816 344.057 663.851 344.334 663.857C344.333 663.882 344.332 663.908 344.332 663.934C344.225 663.895 344.138 663.899 344.029 663.879C344.029 663.879 344.029 663.879 344.028 663.879ZM345.109 659.897C344.881 659.929 344.969 659.962 345.1 660.069C344.925 660.044 344.653 659.893 344.601 659.822C344.771 659.847 344.94 659.872 345.109 659.897ZM341.298 677.86C341.081 677.796 341.08 677.656 341.159 677.602C341.19 677.617 341.222 677.632 341.253 677.647C341.268 677.718 341.283 677.789 341.298 677.86ZM343.382 667.419C343.391 667.411 343.397 667.402 343.403 667.394C343.403 667.404 343.397 667.413 343.382 667.419ZM341.585 671.269C341.384 671.194 341.294 671.274 341.4 671.176C341.399 671.176 341.399 671.176 341.399 671.176C341.468 671.111 341.486 671.097 341.517 671.03C341.779 671.111 341.845 671.273 341.941 671.088C341.942 671.085 341.782 671.057 341.81 671.03C341.819 671.022 341.956 671.018 342.004 670.979C342.019 670.966 342.083 670.859 342.053 671.016C342.241 671.05 342.428 671.098 342.609 671.135C342.649 671.207 342.274 671.178 342.269 671.245C342.264 671.344 342.623 671.469 342.135 671.387C342.032 671.282 342.058 671.143 342.353 671.185C342.373 671.108 342.139 671.036 342.008 671.074C342.102 671.375 341.638 671.075 341.78 671.35C341.847 671.367 341.917 671.392 341.981 671.404C341.729 671.426 341.658 671.295 341.585 671.269ZM342.217 670.811C342.35 670.887 342.484 670.964 342.617 671.04C342.385 670.992 342.182 670.923 342.067 670.822C342.117 670.819 342.167 670.815 342.217 670.811ZM341.467 674.743C341.592 674.775 341.704 674.817 341.821 674.855C341.712 674.847 341.54 675.162 341.471 674.969C341.461 674.941 341.716 674.836 341.467 674.743ZM345.028 659.33C344.936 659.352 344.843 659.373 344.75 659.395C344.709 659.324 344.666 659.252 344.624 659.18C344.759 659.23 344.894 659.28 345.028 659.33ZM343.141 665.988C343.149 665.972 343.311 666.063 343.297 665.992C343.398 666.064 343.482 666.129 343.577 666.199C343.492 666.196 343.407 666.194 343.322 666.191C343.372 666.213 343.422 666.235 343.473 666.258C343.354 666.226 343.239 666.196 343.119 666.164C343.392 666.136 343.105 666.057 343.141 665.988ZM343.17 663.492C343.432 663.531 343.563 663.68 343.628 663.574C343.794 663.631 343.877 663.684 343.878 663.755C343.81 663.752 343.743 663.749 343.676 663.747C343.85 663.784 343.912 663.815 344.028 663.879C344.028 663.879 344.028 663.879 344.028 663.879C344.019 663.984 343.962 663.965 343.67 663.931C343.854 663.856 343.593 663.798 343.452 663.692C343.355 663.619 343.417 663.563 343.17 663.492ZM341.538 674.385C341.742 674.507 341.96 674.48 341.699 674.568C341.645 674.548 341.592 674.527 341.538 674.507C341.537 674.466 341.538 674.425 341.538 674.385ZM344.139 663.299C343.734 663.224 343.406 663.231 344.058 663.379C344.206 663.336 343.828 663.294 344.139 663.299ZM342.583 667.044C342.63 666.913 343.079 667.032 343.294 667.135C343.21 667.126 343.125 667.118 343.041 667.109C343.074 667.141 343.107 667.172 343.139 667.203C342.954 667.15 342.768 667.097 342.583 667.044ZM344.19 660.826C344.456 660.988 344.372 660.747 344.537 660.857C344.668 660.944 344.363 660.96 344.188 660.893C344.187 660.873 344.188 660.85 344.19 660.826C344.19 660.826 344.19 660.826 344.19 660.826ZM344.148 661.44C344.459 661.487 344.364 661.493 344.326 661.4C344.315 661.373 344.468 661.212 344.198 661.237C344.184 661.303 344.165 661.372 344.148 661.44ZM342.709 668.698C342.575 668.672 342.311 668.469 342.388 668.465C342.388 668.465 342.388 668.465 342.388 668.465C342.598 668.457 342.595 668.614 342.883 668.605C342.612 668.7 343.188 668.864 342.419 668.694C342.403 668.602 342.554 668.675 342.709 668.698ZM340.302 679.498C340.302 679.498 340.302 679.498 340.302 679.498C340.311 679.49 340.523 679.452 340.589 679.475C340.511 679.558 340.386 679.515 340.58 679.647C340.51 679.638 340.443 679.628 340.373 679.619C340.34 679.576 340.262 679.539 340.302 679.498ZM341.122 675.049C341.095 675.007 341.253 674.974 341.252 674.932C341.783 675.174 341.233 675.217 341.122 675.049ZM345.38 656.174C345.38 656.174 345.38 656.174 345.38 656.174C345.38 656.174 345.38 656.174 345.379 656.174C345.38 656.174 345.38 656.174 345.38 656.174ZM342.015 672.418C341.978 672.415 341.946 672.411 341.919 672.407C341.916 672.406 341.913 672.406 341.911 672.405C341.945 672.41 341.98 672.414 342.015 672.418ZM342.688 669.003C342.489 669.024 342.234 668.764 342.318 668.715C342.402 668.737 342.479 668.754 342.575 668.785C342.344 668.791 342.722 668.999 342.688 669.003ZM343.553 664.48C343.516 664.635 342.822 664.279 343.411 664.392C343.422 664.395 343.553 664.475 343.553 664.48ZM342.866 667.754C342.652 667.668 342.576 667.736 342.641 667.616C342.7 667.62 342.759 667.625 342.819 667.629C342.834 667.671 342.85 667.713 342.866 667.754ZM342.375 665.304C342.458 665.526 342.638 665.76 343.279 665.759C343.263 665.74 343.247 665.721 343.23 665.702C342.931 665.638 343.106 665.616 343.132 665.538C343.015 665.502 342.997 665.452 342.898 665.422C342.705 665.366 342.557 665.388 342.375 665.304ZM344.582 657.098C344.633 657.112 344.684 657.126 344.734 657.139C344.785 657.182 344.836 657.225 344.887 657.268C344.79 657.243 344.693 657.218 344.596 657.192C344.591 657.161 344.587 657.13 344.582 657.098C344.582 657.098 344.582 657.098 344.582 657.098ZM341.624 670.489C342.184 670.623 342.093 670.539 341.835 670.354C341.765 670.399 341.695 670.444 341.624 670.489ZM343.258 662.189C343.418 662.218 343.579 662.247 343.74 662.276C343.587 662.174 343.401 662.149 343.183 662.137C343.207 662.155 343.233 662.172 343.258 662.189ZM343.39 661.206C343.351 661.227 343.483 661.24 343.48 661.242C343.397 661.299 343.336 661.296 343.415 661.403C343.447 661.421 343.481 661.439 343.513 661.457C343.857 661.486 343.68 661.419 343.895 661.375C343.777 661.367 343.658 661.358 343.54 661.349C343.574 661.307 343.607 661.265 343.641 661.223C343.607 661.21 343.573 661.197 343.539 661.184C343.49 661.192 343.435 661.198 343.39 661.206ZM344.802 656.768C344.825 656.725 344.848 656.682 344.871 656.639C344.789 656.62 344.706 656.601 344.624 656.582C344.683 656.644 344.743 656.706 344.802 656.768ZM341.686 671.483C341.715 671.493 341.744 671.502 341.773 671.512C341.736 671.504 341.709 671.494 341.686 671.483ZM339.824 679.525C339.756 679.565 339.778 679.648 339.754 679.703C339.962 679.741 339.935 679.584 340.071 679.559C340.036 679.543 339.853 679.508 339.824 679.525ZM342.64 666.861C342.539 666.826 342.439 666.792 342.339 666.758C342.356 666.729 342.375 666.7 342.392 666.67C342.308 666.652 342.223 666.633 342.138 666.615C342.219 666.777 341.982 666.694 341.727 666.714C342.031 666.763 342.335 666.812 342.64 666.861ZM344.568 655.199C344.604 655.311 344.704 655.369 344.969 655.365C344.918 655.317 344.867 655.27 344.816 655.222C344.734 655.214 344.651 655.207 344.568 655.199ZM341.115 673.279C341.192 673.383 340.851 673.314 341.025 673.436C341.097 673.405 341.169 673.374 341.241 673.343C341.199 673.322 341.157 673.3 341.115 673.279ZM341.036 668.948C340.91 668.959 341.46 669.143 341.023 669.157C341.142 669.206 341.258 669.246 341.375 669.291C341.24 669.276 341.104 669.262 340.97 669.246C340.97 669.246 340.97 669.246 340.97 669.246C340.996 669.346 341.174 669.321 341.314 669.353C341.372 669.366 341.26 669.413 341.391 669.418C341.616 669.427 341.519 669.265 341.785 669.319C341.688 669.349 341.741 669.457 341.924 669.466C342.124 669.476 341.817 669.321 341.99 669.299C341.549 669.291 341.714 669.153 342.044 669.201C341.814 669.053 341.694 669.121 341.685 669.223C341.448 669.11 341.564 669.228 341.354 669.199C341.242 669.111 341.39 668.917 341.036 668.948ZM342.443 664.463C342.446 664.534 342.281 664.609 342.482 664.699C342.599 664.751 342.716 664.665 342.893 664.778C342.888 664.708 342.816 664.678 342.645 664.654C342.628 664.635 342.611 664.616 342.595 664.597C342.629 664.597 342.663 664.596 342.697 664.596C342.629 664.574 342.562 664.552 342.494 664.53C342.511 664.517 342.528 664.504 342.546 664.491C342.511 664.482 342.481 664.472 342.443 664.463ZM340.624 675.703C340.626 675.684 340.628 675.666 340.629 675.646C340.587 675.64 340.544 675.634 340.501 675.627C340.468 675.622 340.434 675.617 340.4 675.611C340.522 675.625 340.738 675.578 340.619 675.514C340.559 675.482 340.323 675.478 340.3 675.39C340.3 675.45 340.32 675.51 340.327 675.57C340.261 675.551 340.194 675.532 340.127 675.513C340.127 675.513 340.127 675.513 340.127 675.513C340.108 675.529 340.088 675.544 340.069 675.56C340.254 675.608 340.439 675.655 340.624 675.703ZM342.93 662.178C343.049 662.269 343.113 662.305 343.333 662.319C343.333 662.319 343.333 662.319 343.334 662.319C343.244 662.276 343.154 662.232 343.064 662.189C343.019 662.186 342.974 662.182 342.93 662.178ZM340.867 671.884C341.651 672.187 341.217 671.78 340.928 671.781C340.915 671.781 340.959 671.89 340.867 671.884ZM342.328 667.017C342.329 666.979 342.331 666.94 342.332 666.902C342.231 666.889 342.129 666.878 342.028 666.866C342.128 666.916 342.228 666.967 342.328 667.017ZM344.108 655.561C343.877 655.554 343.775 655.638 344.008 655.737C344.041 655.717 344.075 655.697 344.109 655.677C344.127 655.732 344.147 655.786 344.164 655.84C344.474 655.907 344.305 655.814 344.408 655.746C344.425 655.736 344.828 655.732 344.543 655.643C344.485 655.624 344.426 655.705 344.265 655.607C344.246 655.632 344.244 655.656 344.231 655.68C344.156 655.666 344.082 655.653 344.008 655.64C344.041 655.613 344.075 655.588 344.108 655.561ZM342.387 664.859C342.35 664.948 342.472 664.985 342.688 665.049C342.672 665.001 342.656 664.953 342.64 664.905C342.556 664.89 342.471 664.874 342.387 664.859ZM343.866 656.37C343.82 656.413 344.003 656.429 344.033 656.456C344.145 656.559 344.006 656.585 344.07 656.678C344.037 656.665 344.006 656.654 343.973 656.642C343.973 656.642 343.973 656.642 343.973 656.643C343.748 656.97 344.192 656.866 344.171 656.637C344.238 656.646 344.306 656.655 344.373 656.663C344.277 656.543 344.183 656.431 343.866 656.37ZM341.088 670.678C341.045 670.674 340.789 670.584 340.899 670.675C341.273 670.807 341.1 670.682 341.252 670.692C341.286 670.717 341.318 670.743 341.351 670.768C341.482 670.685 341.394 670.65 341.104 670.63C341.084 670.629 341.13 670.683 341.088 670.678ZM340.754 671.334C341.319 671.467 341.091 671.28 340.914 671.248C340.903 671.265 340.996 671.3 340.949 671.31C340.903 671.321 340.769 671.299 340.754 671.334ZM341.685 667.537C341.682 667.54 341.435 667.53 341.622 667.565C342.075 667.608 341.81 667.451 341.653 667.436C341.654 667.47 341.716 667.505 341.684 667.536C341.685 667.536 341.685 667.536 341.685 667.537ZM344.1 654.926C344.084 654.924 343.967 655.002 344.054 655.034C344.152 655.065 344.259 655.092 344.361 655.122C344.276 655.048 344.372 654.953 344.1 654.926C344.1 654.926 344.1 654.926 344.1 654.926Z" fill="#721422"/>
</svg>
