<svg width="24" height="24" viewBox="0 0 24 24" fill="none" xmlns="http://www.w3.org/2000/svg">
<path d="M12 7V13" stroke="#C4142D" stroke-width="1.5" stroke-linecap="round"/>
<path d="M12 17C12.5523 17 13 16.5523 13 16C13 15.4477 12.5523 15 12 15C11.4477 15 11 15.4477 11 16C11 16.5523 11.4477 17 12 17Z" fill="#C4142D"/>
<path d="M9.216 3C10.396 2.333 11.17 2 12 2C13.114 2 14.128 2.6 16.157 3.802L16.843 4.208C18.872 5.41 19.886 6.011 20.443 7C21 7.99 21 9.19 21 11.594V12.406C21 14.809 21 16.011 20.443 17C19.886 17.989 18.872 18.59 16.843 19.791L16.157 20.198C14.128 21.399 13.114 22 12 22C10.886 22 9.872 21.4 7.843 20.198L7.157 19.791C5.128 18.591 4.114 17.989 3.557 17C3 16.01 3 14.81 3 12.406V11.594C3 9.19 3 7.989 3.557 7C3.996 6.22 4.719 5.682 6 4.9" stroke="#C4142D" stroke-width="1.5" stroke-linecap="round"/>
</svg>
